<svg width="12" height="12" viewBox="0 0 12 12" fill="none" xmlns="http://www.w3.org/2000/svg">
<g clip-path="url(#clip0_698_18169)">
<path d="M8.5 1H3.5C2.11929 1 1 2.11929 1 3.5V8.5C1 9.88071 2.11929 11 3.5 11H8.5C9.88071 11 11 9.88071 11 8.5V3.5C11 2.11929 9.88071 1 8.5 1Z" stroke="white" stroke-linecap="round" stroke-linejoin="round"/>
<path d="M7.9979 5.68515C8.05961 6.10127 7.98853 6.52626 7.79478 6.89966C7.60103 7.27306 7.29447 7.57586 6.91871 7.76499C6.54295 7.95412 6.11712 8.01995 5.70179 7.95312C5.28646 7.88628 4.90278 7.69019 4.60532 7.39273C4.30786 7.09527 4.11177 6.71159 4.04493 6.29626C3.9781 5.88093 4.04393 5.4551 4.23306 5.07934C4.42219 4.70358 4.72499 4.39702 5.09839 4.20327C5.47179 4.00952 5.89678 3.93844 6.3129 4.00015C6.73736 4.06309 7.13033 4.26088 7.43375 4.5643C7.73717 4.86773 7.93496 5.26069 7.9979 5.68515Z" stroke="white" stroke-linecap="round" stroke-linejoin="round"/>
<path d="M8.75 3.25H8.755" stroke="white" stroke-linecap="round" stroke-linejoin="round"/>
</g>
<defs>
<clipPath id="clip0_698_18169">
<rect width="12" height="12" fill="white"/>
</clipPath>
</defs>
</svg>
