<svg width="9" height="11" viewBox="0 0 9 11" fill="none" xmlns="http://www.w3.org/2000/svg">
<path fill-rule="evenodd" clip-rule="evenodd" d="M3.94917 5.9827V4.06824C0.969321 3.67936 -0.818586 6.73054 0.373352 9.07875C1.10341 10.5296 2.93602 11.3372 4.56003 10.7988C5.34969 10.5445 5.97546 10.0061 6.34794 9.45267C6.88431 8.645 6.94391 8.04673 6.94391 6.92498C6.94391 5.84809 6.94391 4.78616 6.94391 3.72423C7.0929 3.78406 7.25679 3.90371 7.40578 3.99345C7.55478 4.06824 7.70377 4.14302 7.88256 4.2178C8.13585 4.3225 8.68712 4.48703 9 4.48703V2.19864C8.59772 2.12386 8.40403 2.16873 8.03155 2.0042C7.86766 1.94438 7.73357 1.88455 7.62927 1.79481C6.57143 1.04697 6.69062 0.5534 6.40754 0.0149568C6.18405 0 5.2305 -0.0149568 5.05171 0.0299135C4.97721 0.254265 5.02191 5.77331 5.02191 6.50619C5.02191 7.23907 5.1113 7.88221 4.73882 8.4057C4.21735 9.10866 3.234 9.28814 2.48904 8.70483C1.52059 7.95699 1.77388 6.44636 2.95092 6.01262C3.3681 5.86305 3.54689 5.95279 3.94917 5.9827Z" fill="white"/>
</svg>
