<svg width="15" height="10" viewBox="0 0 15 10" fill="none" xmlns="http://www.w3.org/2000/svg">
<path fill-rule="evenodd" clip-rule="evenodd" d="M0.00393476 4.93572L0 5.02133C0.00918111 5.13289 0.00393476 5.27299 0.00393476 5.39363C0.00393476 5.53762 0.0118043 5.65307 0.0131159 5.79057C0.0131159 5.83598 0.0196738 5.83987 0.022297 5.87878L0.0734489 6.72586C0.0813184 6.79072 0.0786953 6.85169 0.0865648 6.91655C0.17313 7.72989 0.221658 8.67037 0.821054 9.28913C0.844663 9.31248 0.856467 9.31767 0.880075 9.33713C0.918112 9.37086 0.945655 9.40069 0.987626 9.43312C1.11091 9.52911 1.23158 9.59138 1.3811 9.65105C1.5844 9.73278 1.81261 9.77558 2.03165 9.81061L2.39234 9.8586C2.45005 9.86379 2.51563 9.87417 2.5694 9.87677C2.75565 9.88585 2.96025 9.91309 3.14781 9.91179L3.9046 9.92995C4.14068 9.93903 4.3807 9.92606 4.6181 9.92865C4.66663 9.92995 4.67056 9.93773 4.71516 9.93903C4.84632 9.94292 4.98666 9.93125 5.1165 9.93773L5.31193 9.94681C5.70672 9.94681 6.08708 9.96627 6.48843 9.96498C6.57761 9.96498 6.58417 9.97406 6.66549 9.97406C6.77566 9.97406 6.97371 9.96238 7.07208 9.97795C7.18881 9.99481 7.35145 9.98314 7.47605 9.98184C7.60983 9.98184 7.72656 10 7.86822 10H8.42039C9.3949 10 10.3104 9.952 11.2521 9.90271L11.5905 9.87677C11.6626 9.87417 11.7007 9.87028 11.7689 9.86768L11.9459 9.85731C12.0496 9.84693 12.1742 9.83525 12.2856 9.83266L12.6332 9.80672C12.7368 9.80282 12.8601 9.78077 12.9532 9.76131C13.0503 9.74186 13.1565 9.70813 13.2405 9.6757C13.4254 9.60176 13.5566 9.51614 13.6995 9.3981C13.895 9.23595 14.0471 8.9804 14.1415 8.74431C14.2137 8.56659 14.274 8.37201 14.3134 8.18391C14.3802 7.87129 14.4314 7.55607 14.4681 7.23566L14.5901 5.89435C14.6045 5.78538 14.5901 5.65437 14.6019 5.5454C14.6124 5.45589 14.6216 4.92274 14.6111 4.83843C14.6006 4.73984 14.6098 4.57509 14.6098 4.47002L14.5573 3.43874C14.556 3.38685 14.5416 3.32199 14.539 3.2714C14.5271 3.04439 14.5114 2.82257 14.4826 2.59556C14.4498 2.33612 14.4078 2.05592 14.3501 1.81205C14.3173 1.67325 14.2727 1.52407 14.2202 1.39435C14.1048 1.11415 13.9422 0.82358 13.7008 0.631594C13.634 0.578409 13.5618 0.516143 13.4871 0.472038C13.0464 0.210003 12.5296 0.149034 12.0194 0.101038C11.9709 0.095849 11.8948 0.0906602 11.8476 0.0854714C11.7899 0.0789854 11.7243 0.0880658 11.6653 0.0815798L11.1629 0.0660134C11.0934 0.0660134 11.0423 0.0608245 10.9859 0.0569329C10.9295 0.0543385 10.8639 0.0569329 10.8075 0.0569329C10.7353 0.0569329 10.6908 0.0478525 10.6291 0.0478525L10.0861 0.0400693C10.0205 0.0400693 9.98118 0.0309889 9.90773 0.0309889C9.78838 0.0309889 9.65329 0.0426637 9.53918 0.0258C9.46311 0.0141252 7.36194 0.00504479 7.3344 0.00504479C7.15471 0.00504479 6.7232 -0.00922445 6.57499 0.0102336C6.41104 0.0335833 6.01363 0.00374758 5.82738 0.0180168C5.74213 0.0232056 5.58081 0.0219084 5.46408 0.0219084C5.388 0.0219084 5.34997 0.0309889 5.27652 0.0309889C5.21094 0.0309889 5.14667 0.0309889 5.08109 0.0309889C5.00764 0.0309889 4.96829 0.0400693 4.90272 0.0400693C4.83845 0.0400693 4.77156 0.0387721 4.70598 0.0387721C4.66007 0.0400693 4.65745 0.0465553 4.6181 0.0491497C4.46727 0.0569329 4.30201 0.0530413 4.1538 0.0660134C4.09215 0.0712022 4.02133 0.0608245 3.95968 0.0673106C3.90329 0.0737966 3.84951 0.0750938 3.78 0.0750938C3.60162 0.0737966 3.41275 0.0997407 3.22782 0.101038C3.18191 0.101038 3.17929 0.107524 3.13994 0.110118C3.10715 0.111415 3.07305 0.108821 3.04157 0.110118C2.99698 0.111415 2.99698 0.117902 2.95238 0.119199L2.49726 0.145143C2.38578 0.154223 2.24413 0.150332 2.12608 0.165898C1.86639 0.199625 1.73261 0.184059 1.46111 0.273566C1.17781 0.368262 0.94959 0.501874 0.750228 0.706832C0.729243 0.728884 0.72662 0.737965 0.705634 0.760017C0.684649 0.78207 0.680714 0.785961 0.66104 0.811906C0.343636 1.23479 0.287238 1.58374 0.212477 2.09484C0.170506 2.38022 0.146898 2.65523 0.106239 2.94062C0.0970575 3.00288 0.0983691 3.05607 0.089188 3.11833C0.0563983 3.35183 0.066891 3.59311 0.0341013 3.8292C0.0183622 3.94336 0.0314781 4.09124 0.0157391 4.1989C0.00786953 4.25858 0.0183622 4.32084 0.0118043 4.38051C-0.00786953 4.55564 0.00393476 4.758 0.00393476 4.93572Z" fill="white"/>
<path fill-rule="evenodd" clip-rule="evenodd" d="M5.86942 7.10601L8.19617 5.78805C8.29323 5.73097 9.57072 5.01362 9.59301 4.98897C9.51038 4.93059 8.78376 4.52846 8.66834 4.4623C8.35881 4.28329 8.05059 4.10687 7.7358 3.93175L6.10812 3.00554C6.07402 2.98609 5.89434 2.87972 5.86942 2.87842V7.10601Z" fill="#0B78F4"/>
</svg>
