<svg width="20" height="17" viewBox="0 0 20 17" fill="none" xmlns="http://www.w3.org/2000/svg">
<path d="M4.44393 0.994061C4.36161 0.901256 4.26167 0.825714 4.14993 0.771815C4.0382 0.717915 3.91687 0.686729 3.79299 0.680065C3.66911 0.6734 3.54514 0.691389 3.42826 0.73299C3.31138 0.77459 3.20392 0.838975 3.11211 0.922411C3.0203 1.00585 2.94596 1.10668 2.89341 1.21905C2.84085 1.33143 2.81112 1.45312 2.80594 1.57708C2.80076 1.70103 2.82024 1.82477 2.86324 1.94115C2.90624 2.05752 2.9719 2.16419 3.05643 2.255L4.30643 3.6339C1.61503 5.42609 0.44706 7.99797 0.39081 8.11906C0.337882 8.23906 0.310547 8.36877 0.310547 8.49992C0.310547 8.63107 0.337882 8.76078 0.39081 8.88078C0.419716 8.94484 1.10409 10.4636 2.61659 11.9753C4.63847 13.9948 7.18769 15.062 10.0002 15.062C11.3671 15.0696 12.7217 14.804 13.9846 14.2808L15.5541 16.0073C15.7222 16.1879 15.9547 16.2949 16.2011 16.3052C16.4476 16.3155 16.6882 16.2283 16.8708 16.0624C17.0534 15.8964 17.1632 15.6653 17.1764 15.4189C17.1897 15.1726 17.1053 14.9309 16.9416 14.7464L4.44393 0.994061ZM10.0002 13.187C7.68847 13.187 5.66659 12.3487 3.99159 10.6964C3.33273 10.044 2.7658 9.30494 2.30643 8.49953C2.71815 7.77219 3.7744 6.16359 5.58768 5.03937L12.626 12.7823C11.7772 13.0534 10.8912 13.1899 10.0002 13.187ZM19.6096 8.88078C19.5814 8.94406 18.9064 10.4433 17.4221 11.9402C17.3371 12.0345 17.2338 12.1106 17.1185 12.1638C17.0032 12.2171 16.8783 12.2463 16.7513 12.2498C16.6244 12.2533 16.4981 12.231 16.38 12.1842C16.2619 12.1374 16.1546 12.0671 16.0646 11.9775C15.9745 11.888 15.9036 11.7811 15.8561 11.6633C15.8086 11.5455 15.7855 11.4194 15.7882 11.2924C15.791 11.1654 15.8195 11.0403 15.8721 10.9247C15.9246 10.8091 16.0001 10.7054 16.0939 10.6198C16.7175 9.98588 17.2554 9.27306 17.6939 8.49953C17.2348 7.69394 16.6679 6.95482 16.0088 6.30265C14.333 4.65031 12.3119 3.81203 10.0002 3.81203C9.73847 3.81203 9.47675 3.82297 9.21894 3.84484C9.0947 3.85815 8.96905 3.84649 8.84938 3.81055C8.72971 3.7746 8.61844 3.7151 8.52209 3.63553C8.42575 3.55597 8.34628 3.45795 8.28837 3.34723C8.23045 3.23651 8.19525 3.11534 8.18483 2.99082C8.17442 2.86631 8.189 2.74097 8.22772 2.62217C8.26644 2.50337 8.32851 2.3935 8.4103 2.29904C8.49208 2.20457 8.59193 2.12741 8.70396 2.07209C8.816 2.01676 8.93796 1.98439 9.06269 1.97687C9.36972 1.95031 9.68769 1.93703 10.0002 1.93703C12.8127 1.93703 15.3619 3.005 17.3822 5.02453C18.8939 6.53625 19.5783 8.05578 19.6072 8.11906C19.6605 8.23889 19.6882 8.36852 19.6887 8.49967C19.6891 8.63082 19.6621 8.76062 19.6096 8.88078Z" fill="#CBD5E1"/>
</svg>
