<svg width="20" height="21" viewBox="0 0 20 21" fill="none" xmlns="http://www.w3.org/2000/svg">
<path d="M18.8256 8.923L11.3256 1.423C10.974 1.07149 10.4972 0.874023 10 0.874023C9.50283 0.874023 9.026 1.07149 8.67438 1.423L1.17438 8.923C0.999566 9.09674 0.860985 9.30347 0.766679 9.53119C0.672372 9.75891 0.624218 10.0031 0.62501 10.2496V19.2496C0.62501 19.5479 0.743536 19.8341 0.954515 20.0451C1.16549 20.256 1.45164 20.3746 1.75001 20.3746H18.25C18.5484 20.3746 18.8345 20.256 19.0455 20.0451C19.2565 19.8341 19.375 19.5479 19.375 19.2496V10.2496C19.3758 10.0031 19.3276 9.75891 19.2333 9.53119C19.139 9.30347 19.0005 9.09674 18.8256 8.923ZM17.125 18.1246H2.87501V10.4042L10 3.27925L17.125 10.4042V18.1246Z" fill="#A5B4FC"/>
</svg>
