<svg width="24" height="24" viewBox="0 0 24 24" fill="none" xmlns="http://www.w3.org/2000/svg">
<path d="M21.9714 19.6875C20.686 17.4316 18.679 15.6738 16.2733 14.6972C17.4696 13.7999 18.3533 12.549 18.7992 11.1216C19.2451 9.69424 19.2305 8.16274 18.7576 6.74407C18.2847 5.3254 17.3775 4.09148 16.1643 3.21709C14.9512 2.34271 13.4937 1.87219 11.9983 1.87219C10.5029 1.87219 9.04535 2.34271 7.83221 3.21709C6.61907 4.09148 5.71179 5.3254 5.2389 6.74407C4.76601 8.16274 4.75148 9.69424 5.19736 11.1216C5.64325 12.549 6.52694 13.7999 7.72327 14.6972C5.31757 15.6738 3.3105 17.4316 2.02515 19.6875C1.9455 19.8156 1.89242 19.9583 1.86905 20.1073C1.84569 20.2563 1.85252 20.4085 1.88914 20.5548C1.92575 20.7011 1.99141 20.8385 2.08221 20.9589C2.17301 21.0794 2.28709 21.1803 2.41767 21.2557C2.54826 21.3312 2.69268 21.3796 2.84235 21.3981C2.99202 21.4166 3.14388 21.4049 3.28891 21.3635C3.43395 21.3222 3.56918 21.2521 3.68659 21.1574C3.80399 21.0628 3.90117 20.9455 3.97233 20.8125C5.67108 17.8763 8.67108 16.125 11.9983 16.125C15.3255 16.125 18.3255 17.8772 20.0242 20.8125C20.1784 21.0605 20.4231 21.2388 20.7064 21.3097C20.9897 21.3806 21.2895 21.3386 21.5423 21.1925C21.7952 21.0464 21.9814 20.8077 22.0614 20.5268C22.1415 20.246 22.1092 19.945 21.9714 19.6875ZM7.12327 9C7.12327 8.03582 7.40919 7.09329 7.94486 6.2916C8.48053 5.48991 9.2419 4.86507 10.1327 4.49609C11.0235 4.12712 12.0037 4.03057 12.9493 4.21868C13.895 4.40678 14.7636 4.87108 15.4454 5.55286C16.1272 6.23464 16.5915 7.10328 16.7796 8.04894C16.9677 8.9946 16.8712 9.9748 16.5022 10.8656C16.1332 11.7564 15.5084 12.5177 14.7067 13.0534C13.905 13.5891 12.9625 13.875 11.9983 13.875C10.7058 13.8735 9.46669 13.3594 8.55277 12.4455C7.63885 11.5316 7.12476 10.2925 7.12327 9Z" fill="#A5B4FC"/>
</svg>
