<svg width="17" height="14" viewBox="0 0 17 14" fill="none" xmlns="http://www.w3.org/2000/svg">
<path d="M16.0383 7.66256L10.4133 13.2876C10.2372 13.4637 9.99829 13.5626 9.74922 13.5626C9.50015 13.5626 9.26128 13.4637 9.08516 13.2876C8.90904 13.1114 8.81009 12.8726 8.81009 12.6235C8.81009 12.3744 8.90904 12.1356 9.08516 11.9594L13.1094 7.93678H1.625C1.37636 7.93678 1.1379 7.83801 0.962087 7.66219C0.786272 7.48638 0.6875 7.24792 0.6875 6.99928C0.6875 6.75064 0.786272 6.51218 0.962087 6.33637C1.1379 6.16055 1.37636 6.06178 1.625 6.06178H13.1094L9.08672 2.03678C8.9106 1.86066 8.81166 1.62179 8.81166 1.37272C8.81166 1.12365 8.9106 0.884778 9.08672 0.708657C9.26284 0.532537 9.50171 0.433594 9.75078 0.433594C9.99985 0.433594 10.2387 0.532537 10.4148 0.708657L16.0398 6.33366C16.1273 6.42087 16.1966 6.5245 16.2438 6.63858C16.2911 6.75266 16.3153 6.87495 16.3152 6.99844C16.315 7.12192 16.2905 7.24415 16.243 7.35812C16.1955 7.4721 16.1259 7.57556 16.0383 7.66256Z" fill="white"/>
</svg>
