<svg width="21" height="20" viewBox="0 0 21 20" fill="none" xmlns="http://www.w3.org/2000/svg">
<path d="M10.1875 16.875C10.1875 17.1236 10.0887 17.3621 9.91291 17.5379C9.7371 17.7137 9.49864 17.8125 9.25 17.8125H4.25C4.00136 17.8125 3.7629 17.7137 3.58709 17.5379C3.41127 17.3621 3.3125 17.1236 3.3125 16.875V3.125C3.3125 2.87636 3.41127 2.6379 3.58709 2.46209C3.7629 2.28627 4.00136 2.1875 4.25 2.1875H9.25C9.49864 2.1875 9.7371 2.28627 9.91291 2.46209C10.0887 2.6379 10.1875 2.87636 10.1875 3.125C10.1875 3.37364 10.0887 3.6121 9.91291 3.78791C9.7371 3.96373 9.49864 4.0625 9.25 4.0625H5.1875V15.9375H9.25C9.49864 15.9375 9.7371 16.0363 9.91291 16.2121C10.0887 16.3879 10.1875 16.6264 10.1875 16.875ZM18.6633 9.33672L15.5383 6.21172C15.3622 6.0356 15.1233 5.93665 14.8742 5.93665C14.6251 5.93665 14.3863 6.0356 14.2102 6.21172C14.034 6.38784 13.9351 6.62671 13.9351 6.87578C13.9351 7.12485 14.034 7.36372 14.2102 7.53984L15.7344 9.0625H9.25C9.00136 9.0625 8.7629 9.16127 8.58709 9.33709C8.41127 9.5129 8.3125 9.75136 8.3125 10C8.3125 10.2486 8.41127 10.4871 8.58709 10.6629C8.7629 10.8387 9.00136 10.9375 9.25 10.9375H15.7344L14.2094 12.4617C14.0333 12.6378 13.9343 12.8767 13.9343 13.1258C13.9343 13.3749 14.0333 13.6137 14.2094 13.7898C14.3855 13.966 14.6244 14.0649 14.8734 14.0649C15.1225 14.0649 15.3614 13.966 15.5375 13.7898L18.6625 10.6648C18.7499 10.5778 18.8194 10.4743 18.8667 10.3604C18.9141 10.2465 18.9386 10.1243 18.9386 10.0009C18.9387 9.87755 18.9144 9.75537 18.8672 9.64138C18.8199 9.5274 18.7506 9.42387 18.6633 9.33672Z" fill="white"/>
</svg>
