<svg width="20" height="20" viewBox="0 0 20 20" fill="none" xmlns="http://www.w3.org/2000/svg">
<path d="M1.93699 9.49929C2.03541 9.57336 2.14747 9.62731 2.26675 9.65806C2.38603 9.6888 2.5102 9.69574 2.63217 9.67847C2.75413 9.6612 2.87149 9.62007 2.97755 9.55742C3.08361 9.49477 3.17628 9.41183 3.25027 9.31335C3.59956 8.84747 4.05254 8.46932 4.57332 8.20887C5.09411 7.94842 5.66839 7.81283 6.25066 7.81283C6.83294 7.81283 7.40722 7.94842 7.92801 8.20887C8.44879 8.46932 8.90177 8.84747 9.25106 9.31335C9.40036 9.51214 9.6225 9.64349 9.86864 9.67851C10.1148 9.71352 10.3647 9.64934 10.5636 9.50007C10.6339 9.44671 10.6964 9.38387 10.7495 9.31335C11.0988 8.84747 11.5518 8.46932 12.0725 8.20887C12.5933 7.94842 13.1676 7.81283 13.7499 7.81283C14.3322 7.81283 14.9064 7.94842 15.4272 8.20887C15.948 8.46932 16.401 8.84747 16.7503 9.31335C16.8235 9.41357 16.9159 9.49824 17.0222 9.56245C17.1284 9.62666 17.2463 9.66914 17.3691 9.68741C17.4919 9.70569 17.6171 9.6994 17.7374 9.66891C17.8577 9.63842 17.9708 9.58434 18.0701 9.5098C18.1693 9.43526 18.2528 9.34176 18.3157 9.2347C18.3785 9.12765 18.4194 9.00919 18.4361 8.88618C18.4528 8.76318 18.4449 8.63808 18.4129 8.51816C18.3808 8.39823 18.3253 8.28586 18.2495 8.18757C17.728 7.4893 17.0513 6.92178 16.2729 6.52976C16.6135 6.06388 16.8185 5.51278 16.8651 4.93754C16.9117 4.36231 16.798 3.78542 16.5368 3.27081C16.2756 2.7562 15.8769 2.32399 15.3851 2.02208C14.8932 1.72017 14.3274 1.56035 13.7503 1.56035C13.1732 1.56035 12.6073 1.72017 12.1155 2.02208C11.6236 2.32399 11.225 2.7562 10.9638 3.27081C10.7025 3.78542 10.5889 4.36231 10.6355 4.93754C10.682 5.51278 10.887 6.06388 11.2276 6.52976C10.7828 6.75286 10.3699 7.03482 10.0003 7.36804C9.63067 7.03454 9.21784 6.75232 8.77293 6.52898C9.11355 6.0631 9.31851 5.512 9.36508 4.93676C9.41166 4.36153 9.29803 3.78463 9.03679 3.27003C8.77556 2.75542 8.37693 2.32321 7.88508 2.0213C7.39323 1.71938 6.82739 1.55957 6.25027 1.55957C5.67316 1.55957 5.10731 1.71938 4.61547 2.0213C4.12362 2.32321 3.72499 2.75542 3.46375 3.27003C3.20252 3.78463 3.08889 4.36153 3.13547 4.93676C3.18204 5.512 3.387 6.0631 3.72762 6.52898C2.94923 6.92099 2.27258 7.48852 1.75106 8.18679C1.6017 8.38551 1.53739 8.63541 1.57226 8.88154C1.60713 9.12767 1.73832 9.34987 1.93699 9.49929ZM13.7503 3.43757C13.9975 3.43757 14.2392 3.51088 14.4447 3.64823C14.6503 3.78558 14.8105 3.98081 14.9051 4.20921C14.9997 4.43762 15.0245 4.68896 14.9763 4.93143C14.928 5.17391 14.809 5.39664 14.6342 5.57145C14.4593 5.74627 14.2366 5.86532 13.9941 5.91355C13.7517 5.96178 13.5003 5.93703 13.2719 5.84242C13.0435 5.74781 12.8483 5.58759 12.7109 5.38203C12.5736 5.17647 12.5003 4.9348 12.5003 4.68757C12.5003 4.35605 12.632 4.03811 12.8664 3.80369C13.1008 3.56927 13.4188 3.43757 13.7503 3.43757ZM6.25027 3.43757C6.4975 3.43757 6.73918 3.51088 6.94474 3.64823C7.1503 3.78558 7.31051 3.98081 7.40512 4.20921C7.49973 4.43762 7.52449 4.68896 7.47626 4.93143C7.42802 5.17391 7.30897 5.39664 7.13416 5.57145C6.95934 5.74627 6.73661 5.86532 6.49414 5.91355C6.25166 5.96178 6.00033 5.93703 5.77192 5.84242C5.54351 5.74781 5.34829 5.58759 5.21094 5.38203C5.07359 5.17647 5.00027 4.9348 5.00027 4.68757C5.00027 4.35605 5.13197 4.03811 5.36639 3.80369C5.60081 3.56927 5.91875 3.43757 6.25027 3.43757ZM16.2729 15.279C16.6135 14.8131 16.8185 14.262 16.8651 13.6868C16.9117 13.1115 16.798 12.5346 16.5368 12.02C16.2756 11.5054 15.8769 11.0732 15.3851 10.7713C14.8932 10.4694 14.3274 10.3096 13.7503 10.3096C13.1732 10.3096 12.6073 10.4694 12.1155 10.7713C11.6236 11.0732 11.225 11.5054 10.9638 12.02C10.7025 12.5346 10.5889 13.1115 10.6355 13.6868C10.682 14.262 10.887 14.8131 11.2276 15.279C10.7829 15.5023 10.3701 15.7843 10.0003 16.1173C9.63044 15.7843 9.21765 15.5023 8.77293 15.279C9.11355 14.8131 9.31851 14.262 9.36508 13.6868C9.41166 13.1115 9.29803 12.5346 9.03679 12.02C8.77556 11.5054 8.37693 11.0732 7.88508 10.7713C7.39323 10.4694 6.82739 10.3096 6.25027 10.3096C5.67316 10.3096 5.10731 10.4694 4.61547 10.7713C4.12362 11.0732 3.72499 11.5054 3.46375 12.02C3.20252 12.5346 3.08889 13.1115 3.13547 13.6868C3.18204 14.262 3.387 14.8131 3.72762 15.279C2.94923 15.671 2.27258 16.2385 1.75106 16.9368C1.60166 17.1356 1.53737 17.3856 1.57231 17.6318C1.60725 17.878 1.73857 18.1003 1.93738 18.2497C2.13619 18.3991 2.3862 18.4634 2.63242 18.4284C2.87863 18.3935 3.10088 18.2622 3.25027 18.0634C3.59956 17.5975 4.05254 17.2193 4.57332 16.9589C5.09411 16.6984 5.66839 16.5628 6.25066 16.5628C6.83294 16.5628 7.40722 16.6984 7.92801 16.9589C8.44879 17.2193 8.90177 17.5975 9.25106 18.0634C9.40036 18.2621 9.6225 18.3935 9.86864 18.4285C10.1148 18.4635 10.3647 18.3993 10.5636 18.2501C10.6339 18.1967 10.6964 18.1339 10.7495 18.0634C11.0988 17.5975 11.5518 17.2193 12.0725 16.9589C12.5933 16.6984 13.1676 16.5628 13.7499 16.5628C14.3322 16.5628 14.9064 16.6984 15.4272 16.9589C15.948 17.2193 16.401 17.5975 16.7503 18.0634C16.8235 18.1636 16.9159 18.2482 17.0222 18.3124C17.1284 18.3767 17.2463 18.4191 17.3691 18.4374C17.4919 18.4557 17.6171 18.4494 17.7374 18.4189C17.8577 18.3884 17.9708 18.3343 18.0701 18.2598C18.1693 18.1853 18.2528 18.0918 18.3157 17.9847C18.3785 17.8777 18.4194 17.7592 18.4361 17.6362C18.4528 17.5132 18.4449 17.3881 18.4129 17.2682C18.3808 17.1482 18.3253 17.0359 18.2495 16.9376C17.7282 16.2388 17.0515 15.671 16.2729 15.279ZM6.25027 12.1876C6.4975 12.1876 6.73918 12.2609 6.94474 12.3982C7.1503 12.5356 7.31051 12.7308 7.40512 12.9592C7.49973 13.1876 7.52449 13.439 7.47626 13.6814C7.42802 13.9239 7.30897 14.1466 7.13416 14.3215C6.95934 14.4963 6.73661 14.6153 6.49414 14.6636C6.25166 14.7118 6.00033 14.687 5.77192 14.5924C5.54351 14.4978 5.34829 14.3376 5.21094 14.132C5.07359 13.9265 5.00027 13.6848 5.00027 13.4376C5.00027 13.106 5.13197 12.7881 5.36639 12.5537C5.60081 12.3193 5.91875 12.1876 6.25027 12.1876ZM13.7503 12.1876C13.9975 12.1876 14.2392 12.2609 14.4447 12.3982C14.6503 12.5356 14.8105 12.7308 14.9051 12.9592C14.9997 13.1876 15.0245 13.439 14.9763 13.6814C14.928 13.9239 14.809 14.1466 14.6342 14.3215C14.4593 14.4963 14.2366 14.6153 13.9941 14.6636C13.7517 14.7118 13.5003 14.687 13.2719 14.5924C13.0435 14.4978 12.8483 14.3376 12.7109 14.132C12.5736 13.9265 12.5003 13.6848 12.5003 13.4376C12.5003 13.106 12.632 12.7881 12.8664 12.5537C13.1008 12.3193 13.4188 12.1876 13.7503 12.1876Z" fill="#94A3B8"/>
</svg>
