<svg width="20" height="20" viewBox="0 0 20 20" fill="none" xmlns="http://www.w3.org/2000/svg">
<path d="M18.3111 16.4063C17.24 14.5263 15.5674 13.0615 13.5627 12.2477C14.5596 11.5 15.296 10.4575 15.6676 9.26804C16.0392 8.07855 16.0271 6.8023 15.633 5.62007C15.2389 4.43784 14.4829 3.40958 13.4719 2.68092C12.461 1.95227 11.2464 1.56017 10.0002 1.56017C8.75401 1.56017 7.53942 1.95227 6.52847 2.68092C5.51752 3.40958 4.76146 4.43784 4.36738 5.62007C3.9733 6.8023 3.96119 8.07855 4.33276 9.26804C4.70433 10.4575 5.44075 11.5 6.43769 12.2477C4.43294 13.0615 2.76038 14.5263 1.68925 16.4063C1.62288 16.513 1.57864 16.632 1.55917 16.7561C1.5397 16.8803 1.54539 17.0071 1.57591 17.129C1.60642 17.2509 1.66114 17.3655 1.7368 17.4658C1.81247 17.5661 1.90753 17.6503 2.01635 17.7131C2.12517 17.776 2.24552 17.8163 2.37025 17.8318C2.49497 17.8472 2.62153 17.8374 2.74239 17.8029C2.86325 17.7685 2.97595 17.7101 3.07379 17.6312C3.17162 17.5523 3.2526 17.4546 3.31191 17.3438C4.72753 14.8969 7.22753 13.4375 10.0002 13.4375C12.7728 13.4375 15.2728 14.8977 16.6885 17.3438C16.817 17.5504 17.0209 17.699 17.2569 17.7581C17.493 17.8172 17.7428 17.7822 17.9536 17.6604C18.1643 17.5387 18.3194 17.3397 18.3861 17.1057C18.4529 16.8717 18.426 16.6208 18.3111 16.4063ZM5.93769 7.50002C5.93769 6.69653 6.17595 5.91109 6.62234 5.24301C7.06874 4.57494 7.70321 4.05424 8.44554 3.74676C9.18786 3.43928 10.0047 3.35882 10.7927 3.51558C11.5808 3.67233 12.3047 4.05924 12.8728 4.6274C13.441 5.19555 13.8279 5.91941 13.9846 6.70746C14.1414 7.49551 14.0609 8.31234 13.7534 9.05467C13.446 9.79699 12.9253 10.4315 12.2572 10.8779C11.5891 11.3243 10.8037 11.5625 10.0002 11.5625C8.92313 11.5613 7.89053 11.1329 7.12894 10.3713C6.36734 9.60967 5.93893 8.57708 5.93769 7.50002Z" fill="#475569"/>
</svg>
