<svg width="39" height="47" viewBox="0 0 39 47" fill="none" xmlns="http://www.w3.org/2000/svg">
<path d="M36.0234 0H2.97655C1.45805 0 0.222656 1.2354 0.222656 2.7539V44.2461C0.222656 45.7646 1.45805 47 2.97655 47H36.0234C37.5418 47 38.7772 45.7646 38.7772 44.2461V2.7539C38.7772 1.2354 37.5418 0 36.0234 0ZM13.9922 9.17965H25.0077C26.5262 9.17965 27.7616 7.94425 27.7616 6.42576V5.50779H33.2694V41.4921H5.73045V5.50779H11.2383V6.42576C11.2383 7.94425 12.4737 9.17965 13.9922 9.17965ZM25.9257 6.42576C25.9257 6.92329 25.5053 7.34372 25.0077 7.34372H13.9922C13.4861 7.34372 13.0743 6.93192 13.0743 6.42576V5.50779H25.9257V6.42576ZM13.0743 3.67186V1.83593H25.9257V3.67186H13.0743ZM36.9413 44.2461C36.9413 44.7523 36.5296 45.1641 36.0234 45.1641H2.97655C2.47039 45.1641 2.05859 44.7523 2.05859 44.2461V2.7539C2.05859 2.24773 2.47039 1.83593 2.97655 1.83593H11.2383V3.67186H4.81248C4.30549 3.67186 3.89452 4.08283 3.89452 4.58983V42.4101C3.89452 42.9171 4.30549 43.328 4.81248 43.328H34.1874C34.6943 43.328 35.1053 42.9171 35.1053 42.4101V4.58983C35.1053 4.08283 34.6943 3.67186 34.1874 3.67186H27.7616V1.83593H36.0234C36.5296 1.83593 36.9413 2.24773 36.9413 2.7539V44.2461Z" fill="white"/>
<path d="M9.67119 23.2753C10.0298 23.6337 10.6109 23.6337 10.9695 23.2753L15.518 18.7267L19.6203 22.8291C19.9789 23.1875 20.56 23.1875 20.9186 22.8291L27.7619 15.9858V17.5529C27.8104 18.7709 29.5497 18.77 29.5978 17.5529V13.7695C29.5978 13.2625 29.1868 12.8516 28.6798 12.8516H24.8964C23.6785 12.9001 23.6794 14.6394 24.8964 14.6875H26.4636L20.2695 20.8817L16.1672 16.7794C15.8087 16.4209 15.2275 16.4209 14.8689 16.7794L9.67119 21.9771C9.31273 22.3356 9.31273 22.9168 9.67119 23.2753Z" fill="white"/>
<path d="M28.6797 35.9844H10.3204C9.10239 36.0328 9.10331 37.7723 10.3204 37.8203H28.6797C29.8977 37.7718 29.8968 36.0325 28.6797 35.9844Z" fill="white"/>
<path d="M28.6797 32.3125H10.3204C9.10239 32.361 9.10331 34.1004 10.3204 34.1484H28.6797C29.8977 34.1 29.8968 32.3606 28.6797 32.3125Z" fill="white"/>
<path d="M28.6797 28.6406H10.3204C9.10239 28.6891 9.10331 30.4286 10.3204 30.4766H28.6797C29.8977 30.4281 29.8968 28.6887 28.6797 28.6406Z" fill="white"/>
</svg>
