<svg width="29" height="29" viewBox="0 0 29 29" fill="none" xmlns="http://www.w3.org/2000/svg">
<path d="M4.14258 4.14279C4.14258 1.85479 5.99737 0 8.28537 0C10.5734 0 12.4282 1.85479 12.4282 4.14279C12.4282 5.47834 11.7962 6.66629 10.815 7.42388C10.7854 7.44565 10.7561 7.46769 10.727 7.48996C10.0423 7.99026 9.19831 8.28558 8.28537 8.28558C5.99737 8.28558 4.14258 6.43079 4.14258 4.14279Z" fill="white"/>
<path d="M18.1845 7.42388C18.214 7.44565 18.2433 7.46769 18.2725 7.48998C18.9571 7.99028 19.8012 8.28558 20.7141 8.28558C23.0021 8.28558 24.8569 6.43079 24.8569 4.14279C24.8569 1.85479 23.0021 0 20.7141 0C18.4261 0 16.5713 1.85479 16.5713 4.14279C16.5713 5.47834 17.2033 6.66629 18.1845 7.42388Z" fill="white"/>
<path d="M10.9116 10.357C11.628 9.11876 12.9668 8.28564 14.5002 8.28564C16.0336 8.28564 17.3725 9.11876 18.0888 10.357C18.4413 10.9664 18.643 11.6738 18.643 12.4284C18.643 14.7164 16.7882 16.5712 14.5002 16.5712C12.2122 16.5712 10.3574 14.7164 10.3574 12.4284C10.3574 11.6738 10.5592 10.9664 10.9116 10.357Z" fill="white"/>
<path d="M3.10705 10.3569H8.63919C8.41017 11.0048 8.28558 11.702 8.28558 12.4283C8.28558 14.0199 8.8839 15.4717 9.8679 16.5711H9.32124C7.07348 16.5711 5.16026 18.0033 4.44412 20.0047C3.73992 19.7182 3.08841 19.3439 2.51084 18.8803C0.950708 17.6281 0 15.7759 0 13.464C0 11.7481 1.39107 10.3569 3.10705 10.3569Z" fill="white"/>
<path d="M19.6785 16.5711C21.9261 16.5711 23.8395 18.0032 24.5556 20.0047C25.2599 19.7182 25.9113 19.3439 26.489 18.8803C28.049 17.6281 28.9998 15.7759 28.9998 13.464C28.9998 11.748 27.6086 10.3569 25.8927 10.3569H20.3606C20.5895 11.0048 20.7142 11.702 20.7142 12.4283C20.7142 14.0199 20.1157 15.4717 19.1318 16.5711H19.6785Z" fill="white"/>
<path d="M22.5512 20.5648C22.7018 20.93 22.785 21.3302 22.785 21.7497C22.785 24.0616 21.8343 25.9138 20.2743 27.166C18.7388 28.3984 16.6808 28.9996 14.4994 28.9996C12.3181 28.9996 10.2602 28.3984 8.72471 27.166C7.16458 25.9138 6.21387 24.0616 6.21387 21.7497C6.21387 21.3302 6.29703 20.93 6.44777 20.5648C6.91354 19.4365 8.02449 18.6426 9.32092 18.6426H19.6779C20.9744 18.6426 22.0853 19.4365 22.5512 20.5648Z" fill="white"/>
</svg>
