<svg width="42" height="42" viewBox="0 0 42 42" fill="none" xmlns="http://www.w3.org/2000/svg">
<path d="M40.7695 39.5367H39.457V15.2317C39.457 14.5515 38.9061 14 38.2266 14H33.3047C32.6251 14 32.0742 14.5515 32.0742 15.2317V39.5367H29.6133V23.4428C29.6133 22.7626 29.0624 22.2111 28.3828 22.2111H23.4609C22.7814 22.2111 22.2305 22.7626 22.2305 23.4428V39.5367H19.7695V27.9589C19.7695 27.2787 19.2186 26.7273 18.5391 26.7273H13.6172C12.9376 26.7273 12.3867 27.2787 12.3867 27.9589V39.5367H9.92578V30.915C9.92578 30.2347 9.37486 29.6833 8.69531 29.6833H3.77344C3.09389 29.6833 2.54297 30.2347 2.54297 30.915V39.5367H1.23047C0.550922 39.5367 0 40.0881 0 40.7683C0 41.4485 0.550922 42 1.23047 42H40.7695C41.4491 42 42 41.4485 42 40.7683C42 40.0881 41.4491 39.5367 40.7695 39.5367Z" fill="white"/>
<path d="M1.23045 26C8.90994 26 17.2378 23.2878 24.68 18.3629C30.5087 14.5057 35.3674 9.57825 38.3855 4.53269L39.5805 8.91838C39.7278 9.45902 40.4391 9.9261 41.0874 9.77395C41.7484 9.61891 42.1333 8.9375 41.9575 8.292L39.9426 0.897122C39.7666 0.251694 39.0922 -0.131481 38.4356 0.0415532L30.9159 2.02301C30.2595 2.19596 29.87 2.85946 30.0459 3.50497C30.2218 4.15048 30.8962 4.53365 31.5529 4.36054L36.3971 3.08404C33.5815 7.89559 28.9281 12.6347 23.3061 16.355C16.2657 21.0141 8.42571 23.5799 1.23045 23.5799C0.550914 23.5799 0 24.1217 0 24.79C0 25.4582 0.550914 26 1.23045 26Z" fill="white"/>
</svg>
