<svg width="47" height="47" viewBox="0 0 47 47" fill="none" xmlns="http://www.w3.org/2000/svg">
<path d="M45.5298 23.1856C43.9583 21.8905 41.4745 21.7794 39.8442 23.529L35.7972 27.8734C35.274 26.1918 33.7034 24.9673 31.852 24.9673H24.6299C24.0819 24.9673 23.8984 24.758 22.9465 24.0247C19.317 20.8606 13.8656 20.8707 10.2471 24.055L7.59252 26.3919C6.39925 25.7604 5.00587 25.7448 3.80608 26.3442L0.761364 27.8661C0.0811491 28.2067 -0.19415 29.0337 0.145407 29.7139L8.40667 46.2363C8.74723 46.9165 9.57423 47.1918 10.2544 46.8523L13.2992 45.3294C14.8 44.5796 15.6352 43.0484 15.581 41.4899H31.852C34.8691 41.4899 37.7523 40.0487 39.5624 37.6347L46.1724 28.8209C47.4547 27.1125 47.2518 24.6075 45.5298 23.1856ZM12.0672 42.8666L10.2544 43.7735L3.22409 29.7139L5.03791 28.807C5.71812 28.4674 6.5442 28.7418 6.88477 29.423L12.6832 41.0199C13.0229 41.7 12.7475 42.5261 12.0672 42.8666ZM43.9693 27.1685L37.3595 35.9823C36.0662 37.7071 34.0073 38.736 31.852 38.736H14.62L9.4604 28.416L12.0663 26.1221C14.6594 23.8411 18.5698 23.8411 21.1629 26.1221C22.6903 27.4669 23.6403 27.7211 24.6298 27.7211H31.852C32.6111 27.7211 33.2288 28.3389 33.2288 29.098C33.2288 29.8571 32.611 30.4749 31.852 30.4749H24.8199C24.0598 30.4749 23.443 31.0917 23.443 31.8517C23.443 32.6117 24.0599 33.2286 24.8199 33.2286H32.7745C33.9173 33.2286 35.0189 32.7494 35.7972 31.9132L41.8591 25.4061C42.4136 24.8113 43.2635 24.8608 43.7849 25.3171C44.3301 25.7943 44.3889 26.6104 43.9693 27.1685Z" fill="white"/>
<path d="M28.9514 9.39578C29.8941 8.40722 30.4752 7.07075 30.4752 5.59924C30.4752 2.56829 28.0262 0 24.9677 0C21.9322 0 19.3685 2.5637 19.3685 5.59924C19.3685 7.02567 19.9275 8.37224 20.9427 9.40679C18.4249 10.8185 16.6147 13.5282 16.6147 16.706V18.0829C16.6147 18.8429 17.2316 19.4597 17.9916 19.4597H31.8521C32.6121 19.4597 33.229 18.8429 33.229 18.0829V16.706C33.2289 13.5906 31.5153 10.8387 28.9514 9.39578ZM24.9677 2.75381C26.4602 2.75381 27.7214 4.05724 27.7214 5.59933C27.7214 7.11756 26.4859 8.35306 24.9677 8.35306C23.4256 8.35306 22.1222 7.09186 22.1222 5.59933C22.1222 4.08386 23.4522 2.75381 24.9677 2.75381ZM19.3685 16.706C19.3685 13.6705 21.9322 11.1068 24.9677 11.1068C28.0042 11.1068 30.4752 13.6182 30.4752 16.706H19.3685Z" fill="white"/>
</svg>
