<svg width="20" height="22" viewBox="0 0 20 22" fill="none" xmlns="http://www.w3.org/2000/svg">
<path d="M2.17188 6.75V6.70312H2.125H1.75C1.46406 6.70312 1.18984 6.58954 0.987651 6.38735C0.785463 6.18516 0.671875 5.91094 0.671875 5.625C0.671875 5.33906 0.785463 5.06484 0.987651 4.86265C1.18984 4.66046 1.46406 4.54688 1.75 4.54688H18.25C18.5359 4.54688 18.8102 4.66046 19.0123 4.86265C19.2145 5.06484 19.3281 5.33906 19.3281 5.625C19.3281 5.91094 19.2145 6.18516 19.0123 6.38735C18.8102 6.58954 18.5359 6.70312 18.25 6.70312H17.875H17.8281V6.75V19.5C17.8281 19.9848 17.6355 20.4498 17.2927 20.7927C16.9498 21.1355 16.4848 21.3281 16 21.3281H4C3.51515 21.3281 3.05016 21.1355 2.70732 20.7927C2.36448 20.4498 2.17188 19.9848 2.17188 19.5V6.75ZM15.625 19.1719H15.6719V19.125V6.75V6.70312H15.625H4.375H4.32812V6.75V19.125V19.1719H4.375H15.625ZM5.17188 1.875C5.17188 1.58906 5.28546 1.31484 5.48765 1.11265C5.68984 0.910463 5.96406 0.796875 6.25 0.796875H13.75C14.0359 0.796875 14.3102 0.910463 14.5123 1.11265C14.7145 1.31484 14.8281 1.58906 14.8281 1.875C14.8281 2.16094 14.7145 2.43516 14.5123 2.63735C14.3102 2.83954 14.0359 2.95312 13.75 2.95312H6.25C5.96406 2.95312 5.68984 2.83954 5.48765 2.63735C5.28546 2.43516 5.17188 2.16094 5.17188 1.875Z" fill="#F43F5E" stroke="#F43F5E" stroke-width="0.09375"/>
</svg>
