<svg width="24" height="24" viewBox="0 0 24 24" fill="none" xmlns="http://www.w3.org/2000/svg">
<path d="M4.17188 6.75V6.70312H4.125H3.75C3.46406 6.70312 3.18984 6.58954 2.98765 6.38735C2.78546 6.18516 2.67188 5.91094 2.67188 5.625C2.67188 5.33906 2.78546 5.06484 2.98765 4.86265C3.18984 4.66046 3.46406 4.54688 3.75 4.54688H20.25C20.5359 4.54688 20.8102 4.66046 21.0123 4.86265C21.2145 5.06484 21.3281 5.33906 21.3281 5.625C21.3281 5.91094 21.2145 6.18516 21.0123 6.38735C20.8102 6.58954 20.5359 6.70312 20.25 6.70312H19.875H19.8281V6.75V19.5C19.8281 19.9848 19.6355 20.4498 19.2927 20.7927C18.9498 21.1355 18.4848 21.3281 18 21.3281H6C5.51515 21.3281 5.05016 21.1355 4.70732 20.7927C4.36448 20.4498 4.17188 19.9848 4.17188 19.5V6.75ZM17.625 19.1719H17.6719V19.125V6.75V6.70312H17.625H6.375H6.32812V6.75V19.125V19.1719H6.375H17.625ZM7.17188 1.875C7.17188 1.58906 7.28546 1.31484 7.48765 1.11265C7.68984 0.910463 7.96406 0.796875 8.25 0.796875H15.75C16.0359 0.796875 16.3102 0.910463 16.5123 1.11265C16.7145 1.31484 16.8281 1.58906 16.8281 1.875C16.8281 2.16094 16.7145 2.43516 16.5123 2.63735C16.3102 2.83954 16.0359 2.95312 15.75 2.95312H8.25C7.96406 2.95312 7.68984 2.83954 7.48765 2.63735C7.28546 2.43516 7.17188 2.16094 7.17188 1.875Z" fill="#F43F5E" stroke="#F43F5E" stroke-width="0.09375"/>
</svg>
