<svg width="21" height="21" viewBox="0 0 21 21" fill="none" xmlns="http://www.w3.org/2000/svg">
<path d="M12.7678 1.45661L12.7678 1.45661C12.9376 1.28677 13.1392 1.15205 13.361 1.06013C13.5829 0.968209 13.8207 0.920898 14.0608 0.920898C14.3009 0.920898 14.5387 0.968209 14.7606 1.06013C14.9824 1.15205 15.184 1.28677 15.3537 1.45661L15.3869 1.42347L15.3537 1.45661L19.5425 5.6463C19.8852 5.98912 20.0777 6.45403 20.0777 6.93878C20.0777 7.42353 19.8852 7.88844 19.5425 8.23126L7.98217 19.7925L7.98207 19.7926C7.81281 19.9629 7.61143 20.0979 7.38961 20.1899C7.16779 20.2818 6.92994 20.3288 6.68982 20.3282H6.68969H2.50001C2.01516 20.3282 1.55017 20.1355 1.20733 19.7927C0.864488 19.4499 0.671883 18.9849 0.671883 18.5L0.671883 14.3103L0.671883 14.3102C0.671182 14.0701 0.718159 13.8322 0.810089 13.6104C0.902019 13.3886 1.03707 13.1872 1.20742 13.018L1.20753 13.0179L12.7678 1.45661ZM6.53126 18.1719H6.55067L6.5644 18.1582L14.4394 10.2832L14.4725 10.25L14.4394 10.2169L10.7832 6.56063L10.75 6.52749L10.7169 6.56063L2.84186 14.4356L2.82813 14.4494V14.4688V18.125V18.1719H2.87501H6.53126ZM15.9669 8.68942L16 8.72257L16.0332 8.68942L17.7525 6.97005L17.7857 6.9369L17.7525 6.90376L14.0963 3.24751L14.0631 3.21436L14.03 3.24751L12.3106 4.96688L12.2775 5.00003L12.3106 5.03317L15.9669 8.68942ZM2.50001 20.375H6.68969L1.17438 12.9847C0.999635 13.1583 0.861091 13.3649 0.766785 13.5924C0.67248 13.82 0.624289 14.064 0.625008 14.3103V18.5C0.625008 18.9973 0.822552 19.4742 1.17418 19.8259C1.52581 20.1775 2.00273 20.375 2.50001 20.375Z" fill="#475569" stroke="#475569" stroke-width="0.09375"/>
</svg>
