<svg width="24" height="24" viewBox="0 0 24 24" fill="none" xmlns="http://www.w3.org/2000/svg">
<path d="M14.7678 2.45563L14.7678 2.45563C14.9376 2.28579 15.1392 2.15107 15.361 2.05915C15.5829 1.96723 15.8207 1.91992 16.0608 1.91992C16.3009 1.91992 16.5387 1.96723 16.7606 2.05915C16.9824 2.15107 17.184 2.28579 17.3537 2.45563L17.3869 2.42249L17.3537 2.45563L21.5425 6.64532C21.8852 6.98814 22.0777 7.45305 22.0777 7.9378C22.0777 8.42256 21.8852 8.88746 21.5425 9.23028L9.98217 20.7915L9.98207 20.7916C9.81281 20.9619 9.61143 21.097 9.38961 21.1889C9.16779 21.2808 8.92994 21.3278 8.68982 21.3272H8.68969H4.50001C4.01516 21.3272 3.55017 21.1346 3.20733 20.7917C2.86449 20.4489 2.67188 19.9839 2.67188 19.4991L2.67188 15.3094L2.67188 15.3092C2.67118 15.0691 2.71816 14.8312 2.81009 14.6094C2.90202 14.3876 3.03707 14.1862 3.20742 14.017L3.20753 14.0169L14.7678 2.45563ZM8.53126 19.1709H8.55067L8.5644 19.1572L16.4394 11.2822L16.4725 11.2491L16.4394 11.2159L12.7832 7.55966L12.75 7.52651L12.7169 7.55966L4.84186 15.4347L4.82813 15.4484V15.4678V19.1241V19.1709H4.87501H8.53126ZM17.9669 9.68845L18 9.72159L18.0332 9.68845L19.7525 7.96907L19.7857 7.93593L19.7525 7.90278L16.0963 4.24653L16.0631 4.21339L16.03 4.24653L14.3106 5.96591L14.2775 5.99905L14.3106 6.0322L17.9669 9.68845ZM4.50001 21.3741H8.68969L3.17438 13.9837C2.99963 14.1573 2.86109 14.3639 2.76679 14.5915C2.67248 14.819 2.62429 15.063 2.62501 15.3094V19.4991C2.62501 19.9963 2.82255 20.4732 3.17418 20.8249C3.52581 21.1765 4.00273 21.3741 4.50001 21.3741Z" fill="#475569" stroke="#475569" stroke-width="0.09375"/>
</svg>
