<svg width="18" height="17" viewBox="0 0 18 17" fill="none" xmlns="http://www.w3.org/2000/svg">
<path fill-rule="evenodd" clip-rule="evenodd" d="M17.16 8.69323C17.16 8.0905 17.1059 7.51095 17.0055 6.95459H9V10.2425H13.5746C13.3775 11.3051 12.7786 12.2053 11.8784 12.808V14.9407H14.6255C16.2327 13.461 17.16 11.2819 17.16 8.69323Z" fill="#4285F4"/>
<path fill-rule="evenodd" clip-rule="evenodd" d="M9.00022 17.0002C11.2952 17.0002 13.2193 16.2391 14.6257 14.9409L11.8786 12.8082C11.1175 13.3182 10.1439 13.6196 9.00022 13.6196C6.78635 13.6196 4.91248 12.1243 4.24407 10.1152H1.4043V12.3175C2.80294 15.0955 5.67749 17.0002 9.00022 17.0002Z" fill="#34A853"/>
<path fill-rule="evenodd" clip-rule="evenodd" d="M4.24387 10.1149C4.07387 9.6049 3.97728 9.06012 3.97728 8.4999C3.97728 7.93967 4.07387 7.39489 4.24387 6.88489V4.68262H1.40409C0.82841 5.83012 0.5 7.1283 0.5 8.4999C0.5 9.87149 0.82841 11.1697 1.40409 12.3172L4.24387 10.1149Z" fill="#FBBC05"/>
<path fill-rule="evenodd" clip-rule="evenodd" d="M9.00022 3.38069C10.2482 3.38069 11.3686 3.80955 12.2495 4.65183L14.6875 2.21387C13.2155 0.842274 11.2914 0 9.00022 0C5.67748 0 2.80294 1.90478 1.4043 4.68273L4.24407 6.88501C4.91248 4.87592 6.78635 3.38069 9.00022 3.38069Z" fill="#EA4335"/>
</svg>
