<svg width="20" height="13" viewBox="0 0 20 13" fill="none" xmlns="http://www.w3.org/2000/svg">
<path d="M19.063 1.375V6.375C19.063 6.62364 18.9642 6.8621 18.7884 7.03791C18.6125 7.21373 18.3741 7.3125 18.1255 7.3125C17.8768 7.3125 17.6384 7.21373 17.4625 7.03791C17.2867 6.8621 17.188 6.62364 17.188 6.375V3.64062L11.2887 9.54063C11.2016 9.62803 11.0981 9.69737 10.9842 9.74469C10.8702 9.79201 10.7481 9.81636 10.6247 9.81636C10.5013 9.81636 10.3791 9.79201 10.2652 9.74469C10.1512 9.69737 10.0477 9.62803 9.96061 9.54063L7.50045 7.07812L2.53874 12.0383C2.36262 12.2144 2.12374 12.3133 1.87467 12.3133C1.6256 12.3133 1.38673 12.2144 1.21061 12.0383C1.03449 11.8622 0.935547 11.6233 0.935547 11.3742C0.935547 11.1251 1.03449 10.8863 1.21061 10.7102L6.83561 5.08516C6.92271 4.99776 7.0262 4.92841 7.14015 4.88109C7.25411 4.83377 7.37628 4.80942 7.49967 4.80942C7.62306 4.80942 7.74523 4.83377 7.85919 4.88109C7.97314 4.92841 8.07664 4.99776 8.16373 5.08516L10.6255 7.54688L15.8598 2.3125H13.1255C12.8768 2.3125 12.6384 2.21373 12.4625 2.03791C12.2867 1.8621 12.188 1.62364 12.188 1.375C12.188 1.12636 12.2867 0.887903 12.4625 0.712087C12.6384 0.536272 12.8768 0.4375 13.1255 0.4375H18.1255C18.3741 0.4375 18.6125 0.536272 18.7884 0.712087C18.9642 0.887903 19.063 1.12636 19.063 1.375Z" fill="#22C55E"/>
</svg>
