<svg width="20" height="12" viewBox="0 0 20 12" fill="none" xmlns="http://www.w3.org/2000/svg">
<path d="M19.063 6.00006V11.0001C19.063 11.2487 18.9642 11.4872 18.7884 11.663C18.6125 11.8388 18.3741 11.9376 18.1255 11.9376H13.1255C12.8768 11.9376 12.6384 11.8388 12.4625 11.663C12.2867 11.4872 12.188 11.2487 12.188 11.0001C12.188 10.7514 12.2867 10.513 12.4625 10.3372C12.6384 10.1613 12.8768 10.0626 13.1255 10.0626H15.8598L10.6255 4.82819L8.16373 7.29069C8.07664 7.37809 7.97314 7.44744 7.85919 7.49475C7.74523 7.54207 7.62306 7.56643 7.49967 7.56643C7.37628 7.56643 7.25411 7.54207 7.14015 7.49475C7.0262 7.44744 6.92271 7.37809 6.83561 7.29069L1.21061 1.66569C1.03449 1.48957 0.935547 1.2507 0.935547 1.00163C0.935547 0.878298 0.959838 0.756178 1.00703 0.642238C1.05423 0.528298 1.1234 0.42477 1.21061 0.337564C1.29782 0.250358 1.40134 0.181182 1.51529 0.133987C1.62923 0.0867913 1.75135 0.0625 1.87467 0.0625C2.12374 0.0625 2.36262 0.161443 2.53874 0.337564L7.50045 5.29694L9.96217 2.83444C10.0493 2.74704 10.1528 2.67769 10.2667 2.63037C10.3807 2.58306 10.5028 2.5587 10.6262 2.5587C10.7496 2.5587 10.8718 2.58306 10.9858 2.63037C11.0997 2.67769 11.2032 2.74704 11.2903 2.83444L17.188 8.73444V6.00006C17.188 5.75142 17.2867 5.51297 17.4625 5.33715C17.6384 5.16134 17.8768 5.06256 18.1255 5.06256C18.3741 5.06256 18.6125 5.16134 18.7884 5.33715C18.9642 5.51297 19.063 5.75142 19.063 6.00006Z" fill="#F43F5E"/>
</svg>
