<svg width="72" height="77" viewBox="0 0 72 77" fill="none" xmlns="http://www.w3.org/2000/svg">
<path d="M57 20.4685C56.4656 19.5449 55.7545 18.7356 54.9073 18.0868C54.0601 17.438 53.0934 16.9625 52.0625 16.6873C51.034 16.4056 49.9595 16.3323 48.9023 16.4719C47.8451 16.6114 46.8264 16.9609 45.9062 17.4998C44.9682 18.0241 44.1489 18.737 43.5 19.5935L39.125 12.031C38.5936 11.1055 37.8852 10.2937 37.0401 9.64205C36.195 8.99036 35.2297 8.51155 34.1995 8.23297C33.1694 7.95438 32.0944 7.88147 31.036 8.01841C29.9776 8.15534 28.9566 8.49944 28.0312 9.03105C26.9956 9.63803 26.1008 10.4582 25.4062 11.4373C24.4311 10.5169 23.2372 9.8608 21.9375 9.53105C20.909 9.24933 19.8345 9.17609 18.7773 9.31562C17.7201 9.45515 16.7014 9.80464 15.7812 10.3435C14.8576 10.8779 14.0483 11.589 13.3995 12.4362C12.7507 13.2834 12.2751 14.2501 12 15.281C11.6836 16.4208 11.6302 17.6176 11.8437 18.781C11.068 18.9712 10.3216 19.2655 9.62497 19.656C7.75894 20.7403 6.39873 22.52 5.84228 24.6052C5.28583 26.6905 5.57851 28.9112 6.65622 30.781L7.28122 31.8435C6.20899 31.968 5.17561 32.3195 4.24997 32.8748C2.38608 33.9531 1.02646 35.7272 0.469803 37.8073C-0.086851 39.8874 0.204992 42.1035 1.28122 43.9685L12.8437 63.9998C16.1639 69.738 21.6249 73.9248 28.0283 75.6414C34.4318 77.358 41.2547 76.4641 47 73.1561C52.0403 70.2707 55.9021 65.7008 57.9062 60.2498C61.9691 56.3856 64.6131 51.2664 65.4124 45.7167C66.2117 40.1669 65.1198 34.5097 62.3125 29.656L57 20.4685ZM30.5312 13.3748C30.8879 13.1682 31.2819 13.0342 31.6906 12.9805C32.0993 12.9268 32.5145 12.9544 32.9125 13.0619C33.3104 13.1694 33.6832 13.3545 34.0092 13.6067C34.3353 13.8588 34.6083 14.173 34.8125 14.531L41.4687 26.0623C40.8697 26.2477 40.2932 26.4992 39.75 26.8123C38.8193 27.347 38.002 28.0582 37.3437 28.906L32.9687 21.3435C32.2074 20.0118 31.0792 18.9271 29.7187 18.2185L29.375 17.656C28.966 16.9338 28.8581 16.0795 29.0745 15.2781C29.2909 14.4768 29.8143 13.793 30.5312 13.3748ZM18.2812 14.656C19.0035 14.2471 19.8578 14.1392 20.6591 14.3556C21.4604 14.572 22.1442 15.0954 22.5625 15.8123L23.5937 17.6248C22.9969 17.8159 22.421 18.0672 21.875 18.3748C20.8264 18.9641 19.9281 19.7876 19.25 20.781C18.7164 20.2846 18.117 19.864 17.4687 19.531L17.1562 18.9373C16.9483 18.5825 16.8125 18.1901 16.7565 17.7827C16.7005 17.3753 16.7255 16.9609 16.83 16.5631C16.9345 16.1654 17.1165 15.7922 17.3655 15.465C17.6146 15.1377 17.9257 14.8628 18.2812 14.656ZM44.5 68.8123C39.908 71.4626 34.4515 72.1811 29.33 70.8099C24.2084 69.4387 19.8409 66.09 17.1875 61.4998L5.62497 41.4685C5.3138 40.9343 5.16809 40.3197 5.2063 39.7026C5.24451 39.0856 5.46491 38.4937 5.83961 38.0019C6.2143 37.5101 6.72646 37.1405 7.31128 36.9399C7.89609 36.7392 8.52728 36.7166 9.12497 36.8748C9.92638 37.0995 10.6096 37.6259 11.0312 38.3436L18.5312 51.3435C18.7545 51.7182 19.0698 52.0296 19.4471 52.2484C19.8245 52.4671 20.2514 52.5859 20.6875 52.5935C21.1256 52.592 21.5556 52.4754 21.9344 52.2553C22.3132 52.0353 22.6276 51.7195 22.8459 51.3397C23.0643 50.96 23.179 50.5294 23.1787 50.0914C23.1783 49.6533 23.0628 49.2229 22.8437 48.8435L10.9687 28.281C10.5543 27.56 10.4433 26.7038 10.6602 25.901C10.877 25.0981 11.4039 24.4142 12.125 23.9998C12.846 23.5854 13.7022 23.4744 14.5051 23.6912C15.3079 23.9081 15.9918 24.435 16.4062 25.156L28.2812 45.7185C28.4303 46.0294 28.6421 46.306 28.9032 46.5311C29.1644 46.7562 29.4692 46.9248 29.7987 47.0264C30.1281 47.128 30.475 47.1603 30.8176 47.1214C31.1601 47.0825 31.4909 46.9731 31.7892 46.8002C32.0874 46.6273 32.3467 46.3946 32.5507 46.1167C32.7547 45.8388 32.899 45.5217 32.9746 45.1853C33.0501 44.8489 33.0553 44.5006 32.9897 44.1621C32.9242 43.8236 32.7894 43.5024 32.5937 43.2185L23.2187 26.9685C22.8098 26.2463 22.7019 25.392 22.9183 24.5906C23.1347 23.7893 23.658 23.1055 24.375 22.6873C25.0925 22.2799 25.9421 22.1728 26.7383 22.3894C27.5345 22.606 28.2127 23.1288 28.625 23.8435L41.75 46.5935C41.976 46.9727 42.2962 47.287 42.6795 47.506C43.0627 47.725 43.4961 47.8412 43.9375 47.8435C44.3759 47.8327 44.8051 47.7147 45.1875 47.4998C45.7578 47.1668 46.1732 46.6218 46.343 45.9836C46.5128 45.3454 46.4232 44.6659 46.0937 44.0935L41.0937 35.4061C40.6833 34.697 40.571 33.8541 40.7812 33.0623C40.8812 32.6604 41.0633 32.2835 41.3161 31.9555C41.5689 31.6274 41.8868 31.3552 42.25 31.1561C42.5977 30.9444 42.9855 30.8074 43.389 30.7536C43.7925 30.6998 44.2027 30.7304 44.5937 30.8436C44.9915 30.9433 45.3652 31.122 45.6927 31.3689C46.0201 31.6158 46.2947 31.926 46.5 32.2811L51.8125 41.4998C53.1289 43.7725 53.9841 46.2825 54.329 48.8862C54.6739 51.4899 54.5018 54.1361 53.8226 56.6731C53.1433 59.2102 51.9702 61.5883 50.3705 63.6714C48.7708 65.7544 46.7759 67.5014 44.5 68.8123ZM59.375 49.1248C59.0506 45.556 57.9522 42.1008 56.1562 38.9998L50.8437 29.781C50.0729 28.4568 48.9472 27.3744 47.5937 26.656L47.25 26.0935C46.8378 25.3737 46.7255 24.5205 46.9375 23.7185C47.1622 22.9171 47.6886 22.2339 48.4062 21.8123C48.7605 21.6064 49.1522 21.4729 49.5584 21.4196C49.9647 21.3663 50.3776 21.3943 50.773 21.5019C51.1684 21.6094 51.5384 21.7945 51.8617 22.0463C52.185 22.298 52.4551 22.6115 52.6562 22.9685L57.9687 32.1561C59.4352 34.7075 60.3215 37.5508 60.5645 40.4836C60.8076 43.4164 60.4014 46.3667 59.375 49.1248ZM48.5625 6.71855L49.8437 1.8748C49.9278 1.55675 50.0738 1.25839 50.2732 0.996753C50.4727 0.735112 50.7217 0.515314 51.0061 0.34991C51.2904 0.184506 51.6046 0.0767335 51.9306 0.0327471C52.2567 -0.0112393 52.5882 0.00942137 52.9062 0.0935494C53.2243 0.177678 53.5226 0.323625 53.7843 0.52306C54.0459 0.722495 54.2657 0.971511 54.4311 1.25589C54.5965 1.54027 54.7043 1.85444 54.7483 2.18047C54.7923 2.5065 54.7716 2.838 54.6875 3.15605L53.375 7.9998C53.236 8.53093 52.9239 9.00057 52.4882 9.33449C52.0524 9.6684 51.5177 9.84753 50.9687 9.84355L50.3125 9.78105C49.6752 9.60563 49.1333 9.18495 48.8053 8.61104C48.4774 8.03712 48.39 7.35668 48.5625 6.71855ZM56.7812 9.59355L59.6562 5.4998C60.0404 4.95651 60.623 4.58634 61.278 4.46937C61.933 4.3524 62.6078 4.49805 63.1562 4.8748C63.4261 5.06474 63.6557 5.30624 63.8318 5.58537C64.0079 5.8645 64.127 6.17573 64.1822 6.50112C64.2374 6.8265 64.2276 7.15959 64.1534 7.48117C64.0792 7.80276 63.9421 8.10647 63.75 8.3748L60.875 12.4685C60.6879 12.7374 60.4492 12.9664 60.1728 13.1421C59.8964 13.3178 59.5878 13.4367 59.265 13.492C58.9421 13.5472 58.6115 13.5377 58.2924 13.4639C57.9733 13.3902 57.672 13.2536 57.4062 13.0623C56.865 12.6839 56.4955 12.1067 56.3784 11.4568C56.2613 10.8069 56.4061 10.1371 56.7812 9.59355ZM70.5 16.3435L66.4062 19.2185C65.9784 19.4981 65.4797 19.6499 64.9687 19.656C64.4412 19.6519 63.9285 19.4809 63.504 19.1677C63.0796 18.8544 62.7651 18.4149 62.6056 17.9121C62.446 17.4093 62.4497 16.8688 62.6159 16.3682C62.7822 15.8675 63.1026 15.4323 63.5312 15.1248L67.625 12.2498C67.8933 12.0576 68.197 11.9205 68.5186 11.8463C68.8402 11.7722 69.1733 11.7624 69.4986 11.8176C69.824 11.8728 70.1353 11.9919 70.4144 12.168C70.6935 12.344 70.935 12.5737 71.125 12.8435C71.5017 13.392 71.6474 14.0667 71.5304 14.7218C71.4134 15.3768 71.0433 15.9594 70.5 16.3435Z" fill="#FEFFFF"/>
</svg>
