<svg width="18" height="18" viewBox="0 0 18 18" fill="none" xmlns="http://www.w3.org/2000/svg">
<path d="M12.8074 1.75947C13.7916 1.7623 14.7345 2.14002 15.4304 2.81013C16.1263 3.48024 16.5186 4.3883 16.5215 5.33597V12.4882C16.5186 13.4359 16.1263 14.3439 15.4304 15.0141C14.7345 15.6842 13.7916 16.0619 12.8074 16.0647H5.38011C4.39598 16.0619 3.453 15.6842 2.75712 15.0141C2.06123 14.3439 1.66899 13.4359 1.66605 12.4882V5.33597C1.66899 4.3883 2.06123 3.48024 2.75712 2.81013C3.453 2.14002 4.39598 1.7623 5.38011 1.75947H12.8074ZM12.8074 0.329102H5.38011C2.52035 0.329102 0.180664 2.58214 0.180664 5.33597V12.4882C0.180664 15.242 2.52035 17.4951 5.38011 17.4951H12.8074C15.6672 17.4951 18.0069 15.242 18.0069 12.4882V5.33597C18.0069 2.58214 15.6672 0.329102 12.8074 0.329102Z" fill="black"/>
<path d="M13.9216 5.33618C13.7012 5.33618 13.4858 5.27326 13.3026 5.15537C13.1194 5.03748 12.9766 4.86992 12.8922 4.67388C12.8079 4.47783 12.7858 4.26211 12.8288 4.054C12.8718 3.84588 12.9779 3.65471 13.1337 3.50467C13.2896 3.35462 13.4881 3.25244 13.7042 3.21105C13.9203 3.16965 14.1443 3.19089 14.3479 3.2721C14.5515 3.3533 14.7255 3.49081 14.8479 3.66725C14.9704 3.84368 15.0357 4.05111 15.0357 4.2633C15.036 4.40428 15.0074 4.54393 14.9515 4.67423C14.8956 4.80454 14.8136 4.92293 14.7101 5.02262C14.6066 5.1223 14.4836 5.20132 14.3483 5.25513C14.213 5.30894 14.068 5.33648 13.9216 5.33618ZM9.09376 6.05117C9.6814 6.05117 10.2558 6.21897 10.7445 6.53336C11.2331 6.84774 11.6139 7.29459 11.8388 7.81739C12.0636 8.34019 12.1225 8.91547 12.0078 9.47047C11.8932 10.0255 11.6102 10.5353 11.1947 10.9354C10.7792 11.3356 10.2498 11.608 9.67341 11.7184C9.09706 11.8288 8.49965 11.7722 7.95674 11.5556C7.41383 11.3391 6.9498 10.9724 6.62333 10.5019C6.29685 10.0313 6.12259 9.47817 6.12259 8.9123C6.12344 8.15373 6.43674 7.42646 6.99376 6.89007C7.55078 6.35368 8.30602 6.05198 9.09376 6.05117ZM9.09376 4.6208C8.21234 4.6208 7.35071 4.87249 6.61783 5.34405C5.88496 5.8156 5.31375 6.48584 4.97644 7.27001C4.63914 8.05418 4.55088 8.91706 4.72284 9.74953C4.8948 10.582 5.31924 11.3467 5.9425 11.9468C6.56576 12.547 7.35984 12.9557 8.22433 13.1213C9.08882 13.2869 9.98488 13.2019 10.7992 12.8771C11.6135 12.5523 12.3096 12.0023 12.7992 11.2965C13.2889 10.5908 13.5503 9.76108 13.5503 8.9123C13.5503 7.77412 13.0808 6.68256 12.245 5.87775C11.4093 5.07294 10.2757 4.6208 9.09376 4.6208Z" fill="black"/>
</svg>
