<svg width="29" height="22" viewBox="0 0 29 22" fill="none" xmlns="http://www.w3.org/2000/svg">
<path fill-rule="evenodd" clip-rule="evenodd" d="M24.469 1.8125H4.53149C4.29114 1.8125 4.06063 1.90798 3.89068 2.07793C3.72072 2.24789 3.62524 2.4784 3.62524 2.71875V16.3125H25.3752V2.71875C25.3752 2.4784 25.2798 2.24789 25.1098 2.07793C24.9399 1.90798 24.7093 1.8125 24.469 1.8125ZM4.53149 0C3.81044 0 3.11891 0.286439 2.60905 0.796304C2.09918 1.30617 1.81274 1.99769 1.81274 2.71875V18.125H27.1877V2.71875C27.1877 1.99769 26.9013 1.30617 26.3914 0.796304C25.8816 0.286439 25.19 0 24.469 0H4.53149Z" fill="white"/>
<path d="M0 18.125H29V19.0313C29 19.7523 28.7136 20.4438 28.2037 20.9537C27.6938 21.4636 27.0023 21.75 26.2812 21.75H2.71875C1.99769 21.75 1.30617 21.4636 0.796303 20.9537C0.286439 20.4438 0 19.7523 0 19.0313L0 18.125Z" fill="white"/>
</svg>
