<svg width="20" height="20" viewBox="0 0 20 20" fill="none" xmlns="http://www.w3.org/2000/svg">
<path d="M18.125 3.4375H12.5C12.0315 3.43735 11.5679 3.53329 11.1379 3.7194C10.7079 3.90551 10.3206 4.17783 10 4.51953C9.67941 4.17783 9.29215 3.90551 8.86215 3.7194C8.43215 3.53329 7.96855 3.43735 7.5 3.4375H1.875C1.62636 3.4375 1.3879 3.53627 1.21209 3.71209C1.03627 3.8879 0.9375 4.12636 0.9375 4.375V15.625C0.9375 15.8736 1.03627 16.1121 1.21209 16.2879C1.3879 16.4637 1.62636 16.5625 1.875 16.5625H7.5C7.9144 16.5625 8.31183 16.7271 8.60485 17.0201C8.89788 17.3132 9.0625 17.7106 9.0625 18.125C9.0625 18.3736 9.16127 18.6121 9.33709 18.7879C9.5129 18.9637 9.75136 19.0625 10 19.0625C10.2486 19.0625 10.4871 18.9637 10.6629 18.7879C10.8387 18.6121 10.9375 18.3736 10.9375 18.125C10.9375 17.7106 11.1021 17.3132 11.3951 17.0201C11.6882 16.7271 12.0856 16.5625 12.5 16.5625H18.125C18.3736 16.5625 18.6121 16.4637 18.7879 16.2879C18.9637 16.1121 19.0625 15.8736 19.0625 15.625V4.375C19.0625 4.12636 18.9637 3.8879 18.7879 3.71209C18.6121 3.53627 18.3736 3.4375 18.125 3.4375ZM7.5 14.6875H2.8125V5.3125H7.5C7.9144 5.3125 8.31183 5.47712 8.60485 5.77015C8.89788 6.06317 9.0625 6.4606 9.0625 6.875V15.0633C8.57889 14.8157 8.04328 14.6869 7.5 14.6875ZM17.1875 14.6875H12.5C11.9566 14.6872 11.4209 14.8165 10.9375 15.0648V6.875C10.9375 6.4606 11.1021 6.06317 11.3951 5.77015C11.6882 5.47712 12.0856 5.3125 12.5 5.3125H17.1875V14.6875Z" fill="#4F46E5"/>
</svg>
