<svg width="18" height="24" viewBox="0 0 18 24" fill="none" xmlns="http://www.w3.org/2000/svg">
<path d="M17.5977 11.0041C17.5578 10.8258 17.4751 10.6598 17.3567 10.5207C17.2382 10.3815 17.0877 10.2733 16.9181 10.2053L12.1199 8.28627L13.1127 1.66658C13.1492 1.42888 13.1085 1.18575 12.9967 0.972856C12.8848 0.759966 12.7077 0.588519 12.4913 0.483664C12.2748 0.378809 12.0305 0.346064 11.7941 0.390232C11.5577 0.4344 11.3417 0.553157 11.1777 0.729083L0.677744 11.9791C0.552933 12.1127 0.462589 12.2748 0.414534 12.4513C0.36648 12.6277 0.362165 12.8132 0.401964 12.9917C0.441762 13.1702 0.524474 13.3363 0.642935 13.4756C0.761396 13.6149 0.912036 13.7233 1.08181 13.7913L5.87993 15.7103L4.88712 22.3328C4.85068 22.5705 4.89136 22.8137 5.00321 23.0266C5.11506 23.2395 5.29219 23.4109 5.50861 23.5158C5.72503 23.6206 5.96935 23.6534 6.20575 23.6092C6.44214 23.565 6.65816 23.4463 6.82212 23.2703L17.3221 12.0203C17.4475 11.8863 17.5381 11.7236 17.5862 11.5464C17.6342 11.3693 17.6382 11.1831 17.5977 11.0041ZM7.64993 19.0825L8.23774 15.1666C8.27531 14.916 8.22714 14.66 8.10106 14.4401C7.97497 14.2203 7.77835 14.0495 7.54306 13.9553L3.44431 12.3156L10.3499 4.9169L9.76212 8.83283C9.72456 9.08346 9.77272 9.33944 9.89881 9.55928C10.0249 9.77912 10.2215 9.94994 10.4568 10.0441L14.5556 11.6838L7.64993 19.0825Z" fill="#4F46E5"/>
</svg>
