<svg width="20" height="29" viewBox="0 0 20 29" fill="none" xmlns="http://www.w3.org/2000/svg">
<path d="M10 1C14.9688 1 19 4.98464 19 9.89227C19 15.5392 13 24.4879 10.7969 27.5788C10.7054 27.7093 10.5856 27.8154 10.4471 27.8886C10.3086 27.9618 10.1554 28 10 28C9.84461 28 9.69141 27.9618 9.55292 27.8886C9.41443 27.8154 9.29457 27.7093 9.20312 27.5788C7 24.4892 1 15.5437 1 9.89227C1 4.98464 5.03125 1 10 1Z" stroke="#0F537A" stroke-width="2" stroke-linecap="round" stroke-linejoin="round"/>
<path d="M10 13C8.34315 13 7 11.6569 7 10C7 8.34315 8.34315 7 10 7C11.6569 7 13 8.34315 13 10C13 11.6569 11.6569 13 10 13Z" stroke="#0F537A" stroke-width="2" stroke-linecap="round" stroke-linejoin="round"/>
</svg>
