<svg width="72" height="72" viewBox="0 0 72 72" fill="none" xmlns="http://www.w3.org/2000/svg">
<g filter="url(#filter0_d_2047_16882)">
<path d="M12 30C12 24.4202 12 21.6303 12.6133 19.3413C14.2777 13.1296 19.1296 8.27774 25.3413 6.61334C27.6303 6 30.4202 6 36 6V6C41.5798 6 44.3697 6 46.6587 6.61334C52.8704 8.27774 57.7223 13.1296 59.3867 19.3413C60 21.6303 60 24.4202 60 30V30C60 35.5798 60 38.3697 59.3867 40.6587C57.7223 46.8704 52.8704 51.7223 46.6587 53.3867C44.3697 54 41.5798 54 36 54V54C30.4202 54 27.6303 54 25.3413 53.3867C19.1296 51.7223 14.2777 46.8704 12.6133 40.6587C12 38.3697 12 35.5798 12 30V30Z" fill="#EEF2FF"/>
<path d="M36 53.625C30.396 53.625 27.6676 53.6218 25.4383 53.0244C19.3561 51.3947 14.6053 46.6439 12.9756 40.5617C12.3782 38.3324 12.375 35.604 12.375 30C12.375 24.396 12.3782 21.6676 12.9756 19.4383C14.6053 13.3561 19.3561 8.60529 25.4383 6.97556C27.6676 6.37822 30.396 6.375 36 6.375C41.604 6.375 44.3324 6.37822 46.5617 6.97556C52.6439 8.60529 57.3947 13.3561 59.0244 19.4383C59.6218 21.6676 59.625 24.396 59.625 30C59.625 35.604 59.6218 38.3324 59.0244 40.5617C57.3947 46.6439 52.6439 51.3947 46.5617 53.0244C44.3324 53.6218 41.604 53.625 36 53.625Z" stroke="white" stroke-opacity="0.32" stroke-width="0.75"/>
<path d="M53.0783 13.0027L42.4375 30.198L48.3837 38.8781C50.7275 42.282 48.3625 46.9976 44.3203 46.9976C42.7034 46.9976 41.1787 46.1952 40.2462 44.8175L35.6934 38.1673L30.6797 46.9976M18.9219 46.9976L29.7471 29.4652L24.0278 21.1332C21.684 17.7183 24.0491 13.0027 28.0913 13.0027C29.7188 13.0027 31.2328 13.8161 32.1654 15.1828L36.4841 21.5069L41.3241 13.0063" stroke="#3E4095" stroke-width="3" stroke-linecap="round" stroke-linejoin="round"/>
</g>
<defs>
<filter id="filter0_d_2047_16882" x="0" y="0" width="72" height="72" filterUnits="userSpaceOnUse" color-interpolation-filters="sRGB">
<feFlood flood-opacity="0" result="BackgroundImageFix"/>
<feColorMatrix in="SourceAlpha" type="matrix" values="0 0 0 0 0 0 0 0 0 0 0 0 0 0 0 0 0 0 127 0" result="hardAlpha"/>
<feOffset dy="6"/>
<feGaussianBlur stdDeviation="6"/>
<feComposite in2="hardAlpha" operator="out"/>
<feColorMatrix type="matrix" values="0 0 0 0 0.309804 0 0 0 0 0.27451 0 0 0 0 0.898039 0 0 0 0.1 0"/>
<feBlend mode="normal" in2="BackgroundImageFix" result="effect1_dropShadow_2047_16882"/>
<feBlend mode="normal" in="SourceGraphic" in2="effect1_dropShadow_2047_16882" result="shape"/>
</filter>
</defs>
</svg>
