<svg width="14" height="15" viewBox="0 0 14 15" fill="none" xmlns="http://www.w3.org/2000/svg">
<path d="M13.563 11.064C13.0286 10.5256 11.7342 9.73982 11.1062 9.42315C10.2884 9.01124 10.2211 8.97759 9.57831 9.45512C9.14955 9.77381 8.8645 10.0585 8.3627 9.95149C7.86091 9.84448 6.7705 9.24109 5.81572 8.2894C4.86094 7.33771 4.22251 6.21574 4.11515 5.71566C4.00779 5.21559 4.29722 4.93392 4.6129 4.50418C5.05782 3.89843 5.02416 3.79748 4.64386 2.97972C4.34737 2.34369 3.53864 1.06154 2.99815 0.529828C2.41996 -0.0412531 2.41996 0.0597039 2.04741 0.214505C1.7441 0.342111 1.45312 0.497223 1.17811 0.677899C0.639631 1.03562 0.340778 1.33277 0.131782 1.77934C-0.0772131 2.22591 -0.171109 3.27284 0.908196 5.23342C1.9875 7.19401 2.74473 8.19652 4.31203 9.75934C5.87933 11.3222 7.0845 12.1625 8.84632 13.1505C11.0258 14.3711 11.8618 14.1331 12.3097 13.9245C12.7577 13.7158 13.0562 13.4197 13.4146 12.8813C13.5958 12.6067 13.7512 12.3161 13.879 12.013C14.0342 11.6419 14.1352 11.6418 13.563 11.064Z" fill="#0A486C"/>
</svg>
