<svg width="59" height="59" viewBox="0 0 59 59" fill="none" xmlns="http://www.w3.org/2000/svg">
<path d="M3.45703 51.9707H35.7623C35.1669 50.9497 34.8008 49.7786 34.8008 48.5137V45.0566H1.72852C0.773914 45.0566 0 45.8303 0 46.7852V48.5137C0 50.4228 1.54771 51.9707 3.45703 51.9707Z" fill="white"/>
<path d="M3.45703 12.2148V41.5996H34.8008V20.8574C34.8008 17.0442 37.9016 13.9434 41.7148 13.9434H55.543V12.2148C55.543 9.35542 53.2168 7.0293 50.3574 7.0293H8.64258C5.78315 7.0293 3.45703 9.35542 3.45703 12.2148Z" fill="white"/>
<path d="M55.543 17.4004H41.7148C39.8091 17.4004 38.2578 18.9517 38.2578 20.8574V48.5137C38.2578 50.4194 39.8091 51.9707 41.7148 51.9707H55.543C57.4487 51.9707 59 50.4194 59 48.5137V20.8574C59 18.9517 57.4487 17.4004 55.543 17.4004ZM48.6289 22.5859C49.5835 22.5859 50.3574 23.3596 50.3574 24.3145C50.3574 25.2691 49.5835 26.043 48.6289 26.043C47.6743 26.043 46.9004 25.2691 46.9004 24.3145C46.9004 23.3596 47.6743 22.5859 48.6289 22.5859ZM50.3574 46.7852H46.9004C45.945 46.7852 45.1719 46.012 45.1719 45.0566C45.1719 44.1012 45.945 43.3281 46.9004 43.3281H50.3574C51.3128 43.3281 52.0859 44.1012 52.0859 45.0566C52.0859 46.012 51.3128 46.7852 50.3574 46.7852Z" fill="white"/>
</svg>
