<svg width="12" height="16" viewBox="0 0 12 16" fill="none" xmlns="http://www.w3.org/2000/svg">
<path d="M11.3125 5.5C11.3125 7.80234 9.42109 9.72266 6.9375 10.1141V10.1875C6.9375 10.4361 6.83873 10.6746 6.66291 10.8504C6.4871 11.0262 6.24864 11.125 6 11.125C5.75136 11.125 5.5129 11.0262 5.33709 10.8504C5.16127 10.6746 5.0625 10.4361 5.0625 10.1875V9.25C5.0625 9.00136 5.16127 8.7629 5.33709 8.58709C5.5129 8.41127 5.75136 8.3125 6 8.3125C7.89531 8.3125 9.4375 7.05078 9.4375 5.5C9.4375 3.94922 7.89531 2.6875 6 2.6875C4.10469 2.6875 2.5625 3.94922 2.5625 5.5C2.5625 5.74864 2.46373 5.9871 2.28791 6.16291C2.1121 6.33873 1.87364 6.4375 1.625 6.4375C1.37636 6.4375 1.1379 6.33873 0.962087 6.16291C0.786272 5.9871 0.6875 5.74864 0.6875 5.5C0.6875 2.91562 3.07031 0.8125 6 0.8125C8.92969 0.8125 11.3125 2.91562 11.3125 5.5ZM6 12.6875C5.69097 12.6875 5.38887 12.7791 5.13192 12.9508C4.87497 13.1225 4.6747 13.3665 4.55644 13.6521C4.43818 13.9376 4.40723 14.2517 4.46752 14.5548C4.52781 14.8579 4.67663 15.1363 4.89515 15.3549C5.11367 15.5734 5.39208 15.7222 5.69517 15.7825C5.99827 15.8428 6.31243 15.8118 6.59794 15.6936C6.88345 15.5753 7.12748 15.375 7.29917 15.1181C7.47086 14.8611 7.5625 14.559 7.5625 14.25C7.5625 13.8356 7.39788 13.4382 7.10485 13.1451C6.81183 12.8521 6.4144 12.6875 6 12.6875Z" fill="#4F46E5"/>
</svg>
