<svg width="152" height="24" viewBox="0 0 152 24" fill="none" xmlns="http://www.w3.org/2000/svg">
<path d="M21.9646 10.7672L17.7459 14.4075L19.0312 19.8515C19.1021 20.1471 19.0838 20.457 18.9787 20.7421C18.8736 21.0273 18.6863 21.2749 18.4405 21.4537C18.1947 21.6324 17.9015 21.7344 17.5978 21.7466C17.2941 21.7587 16.9936 21.6807 16.7343 21.5222L11.9999 18.6084L7.26275 21.5222C7.00347 21.6797 6.70335 21.7571 6.4002 21.7444C6.09704 21.7318 5.8044 21.6298 5.55913 21.4511C5.31386 21.2725 5.12692 21.0253 5.02185 20.7407C4.91679 20.456 4.89829 20.1467 4.96869 19.8515L6.25869 14.4075L2.03994 10.7672C1.81053 10.5689 1.64462 10.3074 1.56293 10.0154C1.48123 9.72342 1.48737 9.41382 1.58058 9.12528C1.67379 8.83675 1.84994 8.58207 2.08703 8.39305C2.32412 8.20404 2.61164 8.08905 2.91369 8.06247L8.44494 7.61622L10.5787 2.45247C10.6942 2.17105 10.8908 1.93033 11.1434 1.76091C11.3961 1.5915 11.6934 1.50104 11.9976 1.50104C12.3018 1.50104 12.5991 1.5915 12.8518 1.76091C13.1044 1.93033 13.301 2.17105 13.4165 2.45247L15.5493 7.61622L21.0806 8.06247C21.3832 8.08807 21.6716 8.2024 21.9095 8.39116C22.1475 8.57992 22.3244 8.8347 22.4182 9.12358C22.512 9.41247 22.5185 9.7226 22.4368 10.0151C22.3551 10.3077 22.1889 10.5696 21.959 10.7681L21.9646 10.7672Z" fill="white"/>
<path d="M53.9646 10.7672L49.7459 14.4075L51.0312 19.8515C51.1021 20.1471 51.0838 20.457 50.9787 20.7421C50.8736 21.0273 50.6863 21.2749 50.4405 21.4537C50.1947 21.6324 49.9015 21.7344 49.5978 21.7466C49.2941 21.7587 48.9936 21.6807 48.7343 21.5222L43.9999 18.6084L39.2628 21.5222C39.0035 21.6797 38.7034 21.7571 38.4002 21.7444C38.097 21.7318 37.8044 21.6298 37.5591 21.4511C37.3139 21.2725 37.1269 21.0253 37.0219 20.7407C36.9168 20.456 36.8983 20.1467 36.9687 19.8515L38.2587 14.4075L34.0399 10.7672C33.8105 10.5689 33.6446 10.3074 33.5629 10.0154C33.4812 9.72342 33.4874 9.41382 33.5806 9.12528C33.6738 8.83675 33.8499 8.58207 34.087 8.39305C34.3241 8.20404 34.6116 8.08905 34.9137 8.06247L40.4449 7.61622L42.5787 2.45247C42.6942 2.17105 42.8908 1.93033 43.1434 1.76091C43.3961 1.5915 43.6934 1.50104 43.9976 1.50104C44.3018 1.50104 44.5991 1.5915 44.8518 1.76091C45.1044 1.93033 45.301 2.17105 45.4165 2.45247L47.5493 7.61622L53.0806 8.06247C53.3832 8.08807 53.6716 8.2024 53.9095 8.39116C54.1475 8.57992 54.3244 8.8347 54.4182 9.12358C54.512 9.41247 54.5185 9.7226 54.4368 10.0151C54.3551 10.3077 54.1889 10.5696 53.959 10.7681L53.9646 10.7672Z" fill="white"/>
<path d="M85.9646 10.7672L81.7459 14.4075L83.0312 19.8515C83.1021 20.1471 83.0838 20.457 82.9787 20.7421C82.8736 21.0273 82.6863 21.2749 82.4405 21.4537C82.1947 21.6324 81.9015 21.7344 81.5978 21.7466C81.2941 21.7587 80.9936 21.6807 80.7343 21.5222L75.9999 18.6084L71.2628 21.5222C71.0035 21.6797 70.7034 21.7571 70.4002 21.7444C70.097 21.7318 69.8044 21.6298 69.5591 21.4511C69.3139 21.2725 69.1269 21.0253 69.0219 20.7407C68.9168 20.456 68.8983 20.1467 68.9687 19.8515L70.2587 14.4075L66.0399 10.7672C65.8105 10.5689 65.6446 10.3074 65.5629 10.0154C65.4812 9.72342 65.4874 9.41382 65.5806 9.12528C65.6738 8.83675 65.8499 8.58207 66.087 8.39305C66.3241 8.20404 66.6116 8.08905 66.9137 8.06247L72.4449 7.61622L74.5787 2.45247C74.6942 2.17105 74.8908 1.93033 75.1434 1.76091C75.3961 1.5915 75.6934 1.50104 75.9976 1.50104C76.3018 1.50104 76.5991 1.5915 76.8518 1.76091C77.1044 1.93033 77.301 2.17105 77.4165 2.45247L79.5493 7.61622L85.0806 8.06247C85.3832 8.08807 85.6716 8.2024 85.9095 8.39116C86.1475 8.57992 86.3244 8.8347 86.4182 9.12358C86.512 9.41247 86.5185 9.7226 86.4368 10.0151C86.3551 10.3077 86.1889 10.5696 85.959 10.7681L85.9646 10.7672Z" fill="white"/>
<path d="M117.965 10.7672L113.746 14.4075L115.031 19.8515C115.102 20.1471 115.084 20.457 114.979 20.7421C114.874 21.0273 114.686 21.2749 114.441 21.4537C114.195 21.6324 113.901 21.7344 113.598 21.7466C113.294 21.7587 112.994 21.6807 112.734 21.5222L108 18.6084L103.263 21.5222C103.003 21.6797 102.703 21.7571 102.4 21.7444C102.097 21.7318 101.804 21.6298 101.559 21.4511C101.314 21.2725 101.127 21.0253 101.022 20.7407C100.917 20.456 100.898 20.1467 100.969 19.8515L102.259 14.4075L98.0399 10.7672C97.8105 10.5689 97.6446 10.3074 97.5629 10.0154C97.4812 9.72342 97.4874 9.41382 97.5806 9.12528C97.6738 8.83675 97.8499 8.58207 98.087 8.39305C98.3241 8.20404 98.6116 8.08905 98.9137 8.06247L104.445 7.61622L106.579 2.45247C106.694 2.17105 106.891 1.93033 107.143 1.76091C107.396 1.5915 107.693 1.50104 107.998 1.50104C108.302 1.50104 108.599 1.5915 108.852 1.76091C109.104 1.93033 109.301 2.17105 109.417 2.45247L111.549 7.61622L117.081 8.06247C117.383 8.08807 117.672 8.2024 117.91 8.39116C118.147 8.57992 118.324 8.8347 118.418 9.12358C118.512 9.41247 118.518 9.7226 118.437 10.0151C118.355 10.3077 118.189 10.5696 117.959 10.7681L117.965 10.7672Z" fill="white"/>
<path d="M149.965 10.7672L145.746 14.4075L147.031 19.8515C147.102 20.1471 147.084 20.457 146.979 20.7421C146.874 21.0273 146.686 21.2749 146.441 21.4537C146.195 21.6324 145.901 21.7344 145.598 21.7466C145.294 21.7587 144.994 21.6807 144.734 21.5222L140 18.6084L135.263 21.5222C135.003 21.6797 134.703 21.7571 134.4 21.7444C134.097 21.7318 133.804 21.6298 133.559 21.4511C133.314 21.2725 133.127 21.0253 133.022 20.7407C132.917 20.456 132.898 20.1467 132.969 19.8515L134.259 14.4075L130.04 10.7672C129.811 10.5689 129.645 10.3074 129.563 10.0154C129.481 9.72342 129.487 9.41382 129.581 9.12528C129.674 8.83675 129.85 8.58207 130.087 8.39305C130.324 8.20404 130.612 8.08905 130.914 8.06247L136.445 7.61622L138.579 2.45247C138.694 2.17105 138.891 1.93033 139.143 1.76091C139.396 1.5915 139.693 1.50104 139.998 1.50104C140.302 1.50104 140.599 1.5915 140.852 1.76091C141.104 1.93033 141.301 2.17105 141.417 2.45247L143.549 7.61622L149.081 8.06247C149.383 8.08807 149.672 8.2024 149.91 8.39116C150.147 8.57992 150.324 8.8347 150.418 9.12358C150.512 9.41247 150.518 9.7226 150.437 10.0151C150.355 10.3077 150.189 10.5696 149.959 10.7681L149.965 10.7672Z" fill="white"/>
</svg>
