<svg width="22" height="20" viewBox="0 0 22 20" fill="none" xmlns="http://www.w3.org/2000/svg">
<path d="M20.3551 3.43335L11.3551 0.433353C11.1246 0.355549 10.875 0.355549 10.6445 0.433353L1.64448 3.43335C1.42973 3.50448 1.24141 3.63869 1.10411 3.81848C0.966801 3.99826 0.886886 4.21527 0.874793 4.44116C0.873767 4.46084 0.873767 4.48055 0.874793 4.50023V12.0002C0.874793 12.2986 0.993319 12.5847 1.2043 12.7957C1.41528 13.0067 1.70142 13.1252 1.99979 13.1252C2.29816 13.1252 2.58431 13.0067 2.79529 12.7957C3.00627 12.5847 3.12479 12.2986 3.12479 12.0002V6.06116L5.34761 6.80179C4.65775 8.12226 4.45275 9.64281 4.76828 11.0988C5.0838 12.5548 5.89988 13.8541 7.07448 14.7705C5.53738 15.5285 4.23651 16.6919 3.31229 18.1352C3.22906 18.2589 3.17125 18.3979 3.14222 18.5442C3.11319 18.6904 3.11352 18.841 3.14318 18.9871C3.17284 19.1332 3.23125 19.2719 3.31501 19.3953C3.39877 19.5186 3.50622 19.6241 3.63109 19.7055C3.75597 19.787 3.89579 19.8428 4.04243 19.8697C4.18907 19.8967 4.3396 19.8942 4.48527 19.8624C4.63094 19.8307 4.76885 19.7703 4.89097 19.6848C5.0131 19.5993 5.11701 19.4903 5.19667 19.3643C6.53448 17.3055 8.65604 16.1252 10.9998 16.1252C13.3435 16.1252 15.4651 17.3055 16.8076 19.3643C16.8873 19.4903 16.9912 19.5993 17.1133 19.6848C17.2354 19.7703 17.3733 19.8307 17.519 19.8624C17.6647 19.8942 17.8152 19.8967 17.9618 19.8697C18.1085 19.8428 18.2483 19.787 18.3732 19.7055C18.4981 19.6241 18.6055 19.5186 18.6893 19.3953C18.773 19.2719 18.8314 19.1332 18.8611 18.9871C18.8908 18.841 18.8911 18.6904 18.862 18.5442C18.833 18.3979 18.7752 18.2589 18.692 18.1352C17.7669 16.6903 16.4643 15.5258 14.9251 14.7677C16.0997 13.8513 16.9158 12.552 17.2313 11.096C17.5468 9.64 17.3418 8.11944 16.652 6.79898L20.3551 5.56429C20.5788 5.48944 20.7733 5.34616 20.9112 5.15471C21.049 4.96326 21.1232 4.73332 21.1232 4.49742C21.1232 4.26151 21.049 4.03157 20.9112 3.84012C20.7733 3.64867 20.5788 3.50539 20.3551 3.43054V3.43335ZM10.9998 2.68335L16.442 4.50023L10.9998 6.31429L5.56229 4.50023L10.9998 2.68335ZM15.1248 9.75023C15.1249 10.3909 14.9758 11.0229 14.6892 11.5959C14.4026 12.169 13.9865 12.6674 13.4738 13.0517C12.9612 13.436 12.366 13.6956 11.7356 13.8099C11.1051 13.9241 10.4567 13.89 9.84175 13.7101C9.2268 13.5302 8.66221 13.2096 8.19272 12.7736C7.72324 12.3376 7.36177 11.7982 7.13699 11.1982C6.9122 10.5982 6.83027 9.95409 6.89769 9.31693C6.96512 8.67977 7.18004 8.06708 7.52542 7.52742L10.6445 8.5671C10.875 8.64463 11.1246 8.64463 11.3551 8.5671L14.4742 7.52742C14.8996 8.19068 15.1254 8.96225 15.1248 9.75023Z" fill="#4F46E5"/>
</svg>
