<svg width="80" height="80" viewBox="0 0 80 80" fill="none" xmlns="http://www.w3.org/2000/svg">
<path d="M40 7.5C33.5721 7.5 27.2886 9.40609 21.944 12.9772C16.5994 16.5484 12.4338 21.6242 9.97393 27.5628C7.51408 33.5014 6.87047 40.0361 8.12449 46.3404C9.37851 52.6448 12.4738 58.4358 17.019 62.981C21.5643 67.5262 27.3552 70.6215 33.6596 71.8755C39.964 73.1295 46.4986 72.4859 52.4372 70.0261C58.3758 67.5662 63.4516 63.4006 67.0228 58.056C70.5939 52.7114 72.5 46.4279 72.5 40C72.4835 31.3855 69.0541 23.1286 62.9627 17.0373C56.8714 10.9459 48.6145 7.51652 40 7.5ZM40 67.5C34.561 67.5 29.2442 65.8872 24.7218 62.8654C20.1995 59.8437 16.6747 55.5488 14.5933 50.5238C12.5119 45.4988 11.9673 39.9695 13.0284 34.635C14.0895 29.3005 16.7086 24.4005 20.5546 20.5546C24.4005 16.7086 29.3006 14.0895 34.635 13.0284C39.9695 11.9673 45.4988 12.5119 50.5238 14.5933C55.5488 16.6747 59.8437 20.1995 62.8654 24.7218C65.8872 29.2442 67.5 34.561 67.5 40C67.4917 47.2909 64.5918 54.2808 59.4363 59.4363C54.2809 64.5918 47.2909 67.4917 40 67.5ZM25 33.75C25 33.0083 25.2199 32.2833 25.632 31.6666C26.0441 31.0499 26.6297 30.5693 27.315 30.2855C28.0002 30.0016 28.7542 29.9274 29.4816 30.0721C30.209 30.2167 30.8772 30.5739 31.4017 31.0983C31.9261 31.6228 32.2833 32.291 32.428 33.0184C32.5727 33.7458 32.4984 34.4998 32.2146 35.1851C31.9307 35.8703 31.4501 36.456 30.8334 36.868C30.2167 37.2801 29.4917 37.5 28.75 37.5C27.7555 37.5 26.8016 37.1049 26.0984 36.4017C25.3951 35.6984 25 34.7446 25 33.75ZM47.5 33.75C47.5 33.0083 47.7199 32.2833 48.132 31.6666C48.5441 31.0499 49.1297 30.5693 49.815 30.2855C50.5002 30.0016 51.2542 29.9274 51.9816 30.0721C52.709 30.2167 53.3772 30.5739 53.9017 31.0983C54.4261 31.6228 54.7833 32.291 54.928 33.0184C55.0727 33.7458 54.9984 34.4998 54.7146 35.1851C54.4307 35.8703 53.9501 36.456 53.3334 36.868C52.7167 37.2801 51.9917 37.5 51.25 37.5C50.2555 37.5 49.3016 37.1049 48.5984 36.4017C47.8951 35.6984 47.5 34.7446 47.5 33.75ZM55.1563 48.75C53.6204 51.4107 51.4112 53.6202 48.7507 55.1564C46.0902 56.6926 43.0722 57.5014 40 57.5014C36.9278 57.5014 33.9098 56.6926 31.2493 55.1564C28.5888 53.6202 26.3796 51.4107 24.8438 48.75C24.6481 48.4661 24.5133 48.1449 24.4477 47.8064C24.3822 47.468 24.3874 47.1196 24.4629 46.7832C24.5385 46.4469 24.6828 46.1298 24.8868 45.8519C25.0908 45.5739 25.3501 45.3412 25.6483 45.1683C25.9466 44.9954 26.2774 44.8861 26.6199 44.8471C26.9625 44.8082 27.3093 44.8406 27.6388 44.9422C27.9682 45.0437 28.2731 45.2124 28.5343 45.4374C28.7954 45.6625 29.0072 45.9392 29.1563 46.25C30.2573 48.1509 31.8386 49.7291 33.7419 50.8261C35.6451 51.9232 37.8032 52.5007 40 52.5007C42.1968 52.5007 44.355 51.9232 46.2582 50.8261C48.1614 49.7291 49.7428 48.1509 50.8438 46.25C51.2009 45.7319 51.7403 45.3675 52.3542 45.2296C52.9682 45.0917 53.6116 45.1904 54.156 45.506C54.7004 45.8216 55.1057 46.3309 55.2911 46.9322C55.4766 47.5335 55.4284 48.1826 55.1563 48.75Z" fill="#FEFFFF"/>
</svg>
