<svg width="49" height="49" viewBox="0 0 49 49" fill="none" xmlns="http://www.w3.org/2000/svg">
<path d="M34.0494 40.1405L30.319 43.8671C29.0283 45.1565 27.3128 45.8665 25.4884 45.8665H15.3479C15.0941 45.8665 14.8507 45.9674 14.6712 46.1468L13.4517 47.3664C13.078 47.7401 13.078 48.3461 13.4517 48.7199C13.6386 48.9068 13.8835 49.0002 14.1284 49.0002C14.3733 49.0002 14.6183 48.9068 14.8051 48.7199L15.7442 47.7807H25.4883C27.8235 47.7807 30.0195 46.8717 31.6716 45.2213L35.402 41.4947C35.7759 41.1212 35.7763 40.5152 35.4026 40.1413C35.029 39.7674 34.4234 39.767 34.0494 40.1405Z" fill="white"/>
<path d="M48.72 11.0775L37.9228 0.280291C37.5491 -0.0934302 36.9431 -0.0934302 36.5693 0.280291L32.2623 4.58722C31.8886 4.96094 31.8886 5.56693 32.2623 5.94075L32.6787 6.35716L32.1659 6.87003H22.4219C20.0867 6.87003 17.8907 7.77902 16.2386 9.42942L5.15861 20.4981C4.46218 21.1938 4.07841 22.1191 4.07813 23.1036C4.07784 24.0881 4.46103 25.0135 5.15718 25.7097C5.8805 26.433 6.82997 26.7949 7.77839 26.7948C8.72222 26.7948 9.66499 26.4363 10.3822 25.7192L13.7733 22.328C14.6584 21.4429 15.6586 20.6697 16.7373 20.0291C16.4091 20.9502 16.2358 21.9272 16.2358 22.9203C16.2358 27.6697 20.0997 31.5336 24.8491 31.5336C29.5984 31.5336 33.4624 27.6697 33.4624 22.9203C33.4624 22.669 33.4511 22.4181 33.4294 22.1684C35.77 22.0293 37.9465 21.0518 39.6095 19.3791C40.5234 18.4599 41.5937 17.3859 42.6493 16.3276L43.0596 16.7379C43.2465 16.9248 43.4914 17.0182 43.7363 17.0182C43.9812 17.0182 44.2262 16.9247 44.413 16.7379L48.7199 12.431C48.8994 12.2515 49.0002 12.008 49.0002 11.7542C49.0002 11.5004 48.8995 11.2571 48.72 11.0775ZM24.8491 29.6196C21.1551 29.6196 18.1498 26.6144 18.1498 22.9204C18.1498 21.5663 18.5616 20.2503 19.3182 19.1426C19.8246 19.5759 20.4278 19.8628 21.0766 19.9817C20.443 20.7934 20.0639 21.8131 20.0639 22.9203C20.0639 25.5589 22.2105 27.7055 24.8491 27.7055C27.4876 27.7055 29.6342 25.5589 29.6342 22.9203C29.6342 22.419 29.5563 21.9357 29.4128 21.4813C30.0791 21.7664 30.7784 21.9668 31.494 22.0793C31.5288 22.3575 31.5483 22.6385 31.5483 22.9203C31.5483 26.6144 28.543 29.6196 24.8491 29.6196ZM24.8491 20.0493C26.4322 20.0493 27.7202 21.3373 27.7202 22.9204C27.7202 24.5035 26.4322 25.7915 24.8491 25.7915C23.2659 25.7915 21.978 24.5035 21.978 22.9204C21.978 21.3373 23.2659 20.0493 24.8491 20.0493ZM38.2522 18.0296C36.8144 19.4758 34.8954 20.2722 32.849 20.2722C31.6244 20.2722 30.4206 19.9417 29.3678 19.3166C28.0611 18.5407 26.5712 18.1307 25.0594 18.1307L21.7657 18.1309C21.7656 18.1309 21.7655 18.1309 21.7654 18.1309C21.2679 18.1309 20.8005 17.937 20.4496 17.5849C20.097 17.231 19.9028 16.7585 19.9028 16.2541C19.9028 15.7599 20.0953 15.2953 20.4448 14.9458C20.7942 14.5965 21.2587 14.4042 21.7528 14.4042H21.7531L28.0355 14.4052H28.0356C28.5641 14.4052 28.9925 13.9769 28.9926 13.4483C28.9927 12.9197 28.5643 12.4913 28.0357 12.4912L21.7533 12.4901C21.753 12.4901 21.7528 12.4901 21.7525 12.4901C20.7472 12.4901 19.8022 12.8815 19.0912 13.5923C18.3801 14.3033 17.9886 15.2486 17.9886 16.2541C17.9886 16.5852 18.0312 16.9096 18.1123 17.2215C15.9904 18.0731 14.0353 19.3591 12.4197 20.9746L9.02856 24.3657C8.33692 25.0574 7.20724 25.0531 6.51042 24.3562C6.17594 24.0218 5.99181 23.577 5.992 23.1041C5.99209 22.6311 6.17651 22.1865 6.51109 21.8522L17.5911 10.7835C18.8818 9.49411 20.5974 8.78409 22.4217 8.78409H32.5624C32.8162 8.78409 33.0596 8.68322 33.2391 8.50378L34.0324 7.71059L41.2959 14.9742C40.2389 16.0338 39.1672 17.1092 38.2522 18.0296ZM43.7364 14.7077L34.2926 5.26394L37.2461 2.31044L46.6899 11.7542L43.7364 14.7077Z" fill="white"/>
<path d="M40.1386 27.8525C39.1499 27.8545 38.2255 28.2341 37.528 28.9315L34.1368 32.3226C32.6431 33.8164 30.8224 34.9932 28.8476 35.7465C28.1349 35.0316 27.1546 34.6056 26.1448 34.6056C26.1446 34.6056 26.1445 34.6056 26.1443 34.6056L22.8507 34.6059C21.6826 34.6059 20.5308 34.2887 19.5197 33.6883C18.1712 32.8877 16.6296 32.4644 15.0613 32.4644C12.5014 32.4644 10.1005 33.4613 8.3007 35.2715C5.22987 38.3602 0.329386 43.2608 0.280291 43.3099C-0.0934302 43.6838 -0.0934302 44.2897 0.280291 44.6635C0.467199 44.8504 0.712103 44.9438 0.957008 44.9438C1.20191 44.9438 1.44691 44.8503 1.63372 44.6635C1.68292 44.6144 6.58522 39.7118 9.65796 36.6212C11.0958 35.175 13.0147 34.3785 15.0612 34.3785C16.2857 34.3785 17.4895 34.709 18.5424 35.3342C19.849 36.1101 21.3388 36.5202 22.8507 36.5201L26.1445 36.5198C26.6421 36.5197 27.1095 36.7137 27.4605 37.0659C27.813 37.4197 28.0072 37.8923 28.0072 38.3967C28.0072 38.8909 27.8148 39.3555 27.4653 39.7049C27.1158 40.0542 26.6513 40.2467 26.1572 40.2467C26.1571 40.2467 26.157 40.2467 26.1569 40.2467L19.8745 40.2456H19.8744C19.3459 40.2456 18.9174 40.674 18.9173 41.2026C18.9172 41.7311 19.3457 42.1596 19.8743 42.1597L26.1567 42.1607H26.1573C27.1625 42.1607 28.1078 41.7693 28.8187 41.0584C29.5298 40.3475 29.9214 39.4022 29.9214 38.3967C29.9214 38.0619 29.8813 37.7376 29.8029 37.4273C31.9228 36.5756 33.876 35.2904 35.4903 33.6762L38.8814 30.285C39.2158 29.9506 39.6599 29.7666 40.1321 29.7666H40.1352C40.6109 29.7674 41.0599 29.9548 41.3994 30.2945C41.7339 30.629 41.9181 31.0736 41.9179 31.5466C41.9178 32.0196 41.7335 32.4642 41.3988 32.7985L40.1426 34.0533C39.7687 34.4269 39.7683 35.0329 40.1419 35.4068C40.5155 35.7808 41.1215 35.7811 41.4953 35.4074L42.7515 34.1526C43.448 33.4568 43.8317 32.5316 43.8319 31.5471C43.8322 30.5626 43.449 29.6371 42.7529 28.941C42.0528 28.2407 41.1243 27.8542 40.1386 27.8525Z" fill="white"/>
<path d="M37.7725 38.7297C38.301 38.7297 38.7295 38.3013 38.7295 37.7727C38.7295 37.2442 38.301 36.8157 37.7725 36.8157C37.2439 36.8157 36.8154 37.2442 36.8154 37.7727C36.8154 38.3013 37.2439 38.7297 37.7725 38.7297Z" fill="white"/>
</svg>
