<svg width="76" height="51" viewBox="0 0 76 51" fill="none" xmlns="http://www.w3.org/2000/svg">
<path d="M35.875 35.3436C39.2292 33.1154 41.7769 29.8666 43.1412 26.0778C44.5054 22.2891 44.6137 18.1619 43.4499 14.3069C42.2862 10.4519 39.9122 7.07391 36.6795 4.67295C33.4467 2.27199 29.5268 0.975586 25.5 0.975586C21.4731 0.975586 17.5533 2.27199 14.3205 4.67295C11.0877 7.07391 8.71381 10.4519 7.55006 14.3069C6.38631 18.1619 6.49457 22.2891 7.85881 26.0778C9.22305 29.8666 11.7708 33.1154 15.125 35.3436C9.40303 37.4477 4.46274 41.2538 0.96874 46.2498C0.741009 46.5137 0.570969 46.8223 0.469536 47.1557C0.368102 47.4892 0.337517 47.8402 0.379742 48.1861C0.421968 48.5321 0.536072 48.8654 0.714729 49.1647C0.893386 49.464 1.13265 49.7226 1.41716 49.9239C1.70166 50.1253 2.02513 50.2649 2.36679 50.3339C2.70844 50.4028 3.06074 50.3996 3.40107 50.3243C3.74139 50.2491 4.06222 50.1035 4.34296 49.8969C4.6237 49.6903 4.85814 49.4274 5.03124 49.1248C7.34146 45.8428 10.407 43.1645 13.9694 41.3157C17.5317 39.4668 21.4864 38.5017 25.5 38.5017C29.5135 38.5017 33.4683 39.4668 37.0306 41.3157C40.593 43.1645 43.6585 45.8428 45.9687 49.1248C46.1418 49.4274 46.3763 49.6903 46.657 49.8969C46.9378 50.1035 47.2586 50.2491 47.5989 50.3243C47.9392 50.3996 48.2915 50.4028 48.6332 50.3339C48.9748 50.2649 49.2983 50.1253 49.5828 49.9239C49.8673 49.7226 50.1066 49.464 50.2852 49.1647C50.4639 48.8654 50.578 48.5321 50.6202 48.1861C50.6625 47.8402 50.6319 47.4892 50.5304 47.1557C50.429 46.8223 50.259 46.5137 50.0312 46.2498C46.5372 41.2538 41.597 37.4477 35.875 35.3436ZM11.75 19.7498C11.75 17.0303 12.5564 14.3719 14.0673 12.1107C15.5782 9.84957 17.7256 8.0872 20.2381 7.04649C22.7506 6.00579 25.5152 5.73349 28.1825 6.26404C30.8497 6.79458 33.2997 8.10414 35.2227 10.0271C37.1457 11.9501 38.4552 14.4001 38.9858 17.0673C39.5163 19.7346 39.244 22.4992 38.2033 25.0117C37.1626 27.5242 35.4003 29.6717 33.1391 31.1825C30.8779 32.6934 28.2195 33.4998 25.5 33.4998C21.8533 33.4998 18.3559 32.0512 15.7773 29.4726C13.1986 26.8939 11.75 23.3966 11.75 19.7498ZM74.9062 49.7186C74.6404 49.9099 74.3392 50.0465 74.0201 50.1202C73.7009 50.194 73.3703 50.2035 73.0475 50.1483C72.7247 50.093 72.4161 49.9741 72.1396 49.7984C71.8632 49.6226 71.6245 49.3937 71.4375 49.1248C69.1256 45.8444 66.0598 43.1671 62.4978 41.3181C58.9359 39.4692 54.982 38.5026 50.9687 38.4998C50.3057 38.4998 49.6698 38.2364 49.201 37.7676C48.7321 37.2988 48.4687 36.6629 48.4687 35.9998C48.4687 35.3368 48.7321 34.7009 49.201 34.2321C49.6698 33.7632 50.3057 33.4998 50.9687 33.4998C54.6155 33.4998 58.1128 32.0512 60.6915 29.4726C63.2701 26.8939 64.7187 23.3966 64.7187 19.7498C64.7187 16.1031 63.2701 12.6057 60.6915 10.0271C58.1128 7.44849 54.6155 5.99983 50.9687 5.99983C49.713 6.00819 48.4634 6.1762 47.25 6.49983C46.934 6.59046 46.6032 6.61789 46.2766 6.58053C45.95 6.54317 45.634 6.44176 45.3466 6.28212C45.0593 6.12247 44.8062 5.90772 44.602 5.65015C44.3977 5.39258 44.2462 5.09726 44.1562 4.78108C43.9817 4.14308 44.0639 3.46211 44.3851 2.88391C44.7063 2.30571 45.2411 1.87621 45.875 1.68733C47.5363 1.24003 49.2483 1.00896 50.9687 0.999834C54.9997 0.985326 58.9277 2.27246 62.1684 4.66977C65.4091 7.06708 67.7894 10.4465 68.9551 14.3053C70.1208 18.1641 70.0097 22.2961 68.6383 26.0867C67.2669 29.8772 64.7086 33.1239 61.3437 35.3436C67.0694 37.4563 72.0174 41.2599 75.5312 46.2498C75.9063 46.7933 76.0511 47.4632 75.934 48.1131C75.8169 48.763 75.4474 49.3402 74.9062 49.7186Z" fill="#FEFFFF"/>
</svg>
