<svg width="22" height="23" viewBox="0 0 22 23" fill="none" xmlns="http://www.w3.org/2000/svg">
<path d="M20.4453 8.87969C20.1153 8.53563 19.775 8.18031 19.6634 7.91125C19.5641 7.67125 19.5566 7.17719 19.55 6.74219C19.5359 5.80469 19.5181 4.63844 18.6894 3.81063C17.8606 2.98281 16.6953 2.96687 15.7578 2.95C15.3228 2.94344 14.8287 2.93594 14.5887 2.83656C14.3197 2.725 13.9644 2.38469 13.6203 2.05469C12.9566 1.41813 12.1297 0.625 11 0.625C9.87031 0.625 9.04344 1.41813 8.37969 2.05469C8.03563 2.38469 7.68031 2.725 7.41125 2.83656C7.17125 2.93594 6.67719 2.94344 6.24219 2.95C5.30469 2.96875 4.13844 2.98187 3.3125 3.8125C2.48656 4.64313 2.46875 5.80469 2.45 6.74219C2.44344 7.17719 2.43594 7.67125 2.33656 7.91125C2.225 8.18031 1.88469 8.53563 1.55469 8.87969C0.918125 9.54344 0.125 10.375 0.125 11.5C0.125 12.625 0.918125 13.4566 1.55469 14.125C1.88469 14.4691 2.225 14.8244 2.33656 15.0934C2.43594 15.3334 2.44344 15.8275 2.45 16.2625C2.46406 17.2 2.48187 18.3663 3.31063 19.1941C4.13937 20.0219 5.30469 20.0378 6.24219 20.0547C6.67719 20.0613 7.17125 20.0688 7.41125 20.1681C7.68031 20.2797 8.03563 20.62 8.37969 20.95C9.04344 21.5819 9.875 22.375 11 22.375C12.125 22.375 12.9566 21.5819 13.6203 20.9453C13.9644 20.6153 14.3197 20.275 14.5887 20.1634C14.8287 20.0641 15.3228 20.0566 15.7578 20.05C16.6953 20.0359 17.8616 20.0181 18.6894 19.1894C19.5172 18.3606 19.5331 17.1953 19.55 16.2578C19.5566 15.8228 19.5641 15.3287 19.6634 15.0887C19.775 14.8197 20.1153 14.4644 20.4453 14.1203C21.0819 13.4566 21.875 12.6297 21.875 11.5C21.875 10.3703 21.0819 9.54344 20.4453 8.87969ZM18.8216 12.5631C18.3697 13.0319 17.8578 13.5681 17.585 14.2281C17.3206 14.8656 17.3103 15.5556 17.3038 16.2241C17.2963 16.7266 17.2859 17.4156 17.1022 17.5984C16.9184 17.7812 16.2303 17.7925 15.7278 17.8C15.0594 17.8103 14.3694 17.8206 13.7319 18.0812C13.0756 18.3541 12.5384 18.8659 12.0669 19.3178C11.7294 19.6413 11.225 20.125 11 20.125C10.775 20.125 10.2706 19.6412 9.93688 19.3216C9.46813 18.8697 8.93188 18.3578 8.27188 18.085C7.63438 17.8206 6.94438 17.8103 6.27594 17.8038C5.77344 17.7963 5.08437 17.7859 4.90156 17.6022C4.71875 17.4184 4.7075 16.7303 4.7 16.2278C4.68969 15.5594 4.67937 14.8694 4.41875 14.2319C4.14594 13.5756 3.63406 13.0384 3.18219 12.5669C2.85875 12.2294 2.375 11.725 2.375 11.5C2.375 11.275 2.85875 10.7706 3.17844 10.4369C3.63031 9.96813 4.14219 9.43188 4.415 8.77188C4.67937 8.13438 4.68969 7.44438 4.69625 6.77594C4.7075 6.27344 4.71875 5.58437 4.90625 5.40625C5.09375 5.22813 5.77813 5.21219 6.28063 5.20469C6.94906 5.19438 7.63906 5.18406 8.27656 4.92344C8.93281 4.65062 9.47 4.13875 9.94156 3.68687C10.2706 3.35875 10.775 2.875 11 2.875C11.225 2.875 11.7294 3.35875 12.0631 3.67844C12.5319 4.13031 13.0681 4.64219 13.7281 4.915C14.3656 5.17937 15.0556 5.18969 15.7241 5.19625C16.2266 5.20375 16.9156 5.21406 17.0984 5.39781C17.2812 5.58156 17.2925 6.26969 17.3 6.77219C17.3103 7.44063 17.3206 8.13063 17.5812 8.76813C17.8541 9.42438 18.3659 9.96156 18.8178 10.4331C19.1375 10.7669 19.6213 11.2712 19.6213 11.4963C19.6213 11.7212 19.1412 12.2294 18.8216 12.5631ZM15.5459 8.45406C15.6508 8.55858 15.734 8.68277 15.7908 8.81952C15.8476 8.95626 15.8768 9.10287 15.8768 9.25094C15.8768 9.399 15.8476 9.54561 15.7908 9.68236C15.734 9.8191 15.6508 9.9433 15.5459 10.0478L10.2959 15.2978C10.1914 15.4027 10.0672 15.4859 9.93048 15.5427C9.79374 15.5995 9.64713 15.6287 9.49906 15.6287C9.351 15.6287 9.20439 15.5995 9.06764 15.5427C8.9309 15.4859 8.8067 15.4027 8.70219 15.2978L6.45219 13.0478C6.34754 12.9432 6.26453 12.8189 6.2079 12.6822C6.15126 12.5455 6.12211 12.3989 6.12211 12.2509C6.12211 12.1029 6.15126 11.9564 6.2079 11.8197C6.26453 11.6829 6.34754 11.5587 6.45219 11.4541C6.55683 11.3494 6.68107 11.2664 6.8178 11.2098C6.95452 11.1531 7.10107 11.124 7.24906 11.124C7.39706 11.124 7.5436 11.1531 7.68033 11.2098C7.81706 11.2664 7.94129 11.3494 8.04594 11.4541L9.5 12.9062L13.9541 8.45125C14.0587 8.34684 14.183 8.26408 14.3196 8.2077C14.4563 8.15133 14.6027 8.12245 14.7506 8.12271C14.8984 8.12297 15.0448 8.15237 15.1812 8.20922C15.3177 8.26608 15.4416 8.34928 15.5459 8.45406Z" fill="#4F46E5"/>
</svg>
