<svg width="47" height="47" viewBox="0 0 47 47" fill="none" xmlns="http://www.w3.org/2000/svg">
<path d="M23.5059 0H23.4941C10.5368 0 0 10.5397 0 23.5C0 28.6406 1.65675 33.4053 4.47381 37.2739L1.54513 46.0042L10.5779 43.1166C14.2939 45.5783 18.7266 47 23.5059 47C36.4632 47 47 36.4573 47 23.5C47 10.5427 36.4632 0 23.5059 0ZM37.1799 33.1849C36.613 34.7859 34.3629 36.1136 32.5681 36.5014C31.3402 36.7628 29.7363 36.9714 24.3372 34.733C17.4311 31.8719 12.9838 24.8542 12.6371 24.3989C12.3052 23.9436 9.8465 20.6829 9.8465 17.3107C9.8465 13.9384 11.5591 12.2964 12.2494 11.5914C12.8163 11.0127 13.7534 10.7483 14.6522 10.7483C14.9431 10.7483 15.2045 10.763 15.4395 10.7747C16.1298 10.8041 16.4764 10.8453 16.9317 11.9351C17.4987 13.301 18.8793 16.6733 19.0438 17.0199C19.2113 17.3665 19.3787 17.8365 19.1437 18.2918C18.9234 18.7618 18.7295 18.9704 18.3829 19.3699C18.0362 19.7694 17.7072 20.0749 17.3606 20.5037C17.0434 20.8768 16.685 21.2763 17.0845 21.9666C17.484 22.6423 18.8646 24.8953 20.8974 26.7048C23.5206 29.0401 25.6473 29.7863 26.4081 30.1035C26.9751 30.3385 27.6507 30.2827 28.0649 29.8421C28.5907 29.2751 29.2399 28.3351 29.9008 27.4098C30.3708 26.7459 30.9642 26.6637 31.5869 26.8987C32.2214 27.119 35.579 28.7787 36.2693 29.1224C36.9596 29.469 37.4149 29.6335 37.5824 29.9243C37.7469 30.2151 37.7469 31.5811 37.1799 33.1849Z" fill="white"/>
</svg>
